<?xml version="1.0" encoding="UTF-8"?>
<svg version="1.1" xmlns="http://www.w3.org/2000/svg" width="512" height="512">
<path d="M0 0 C1.43126828 -0.01487498 1.43126828 -0.01487498 2.89145106 -0.03005046 C6.09136102 -0.05703605 9.29016095 -0.04824008 12.49015808 -0.03947449 C14.78331611 -0.05116003 17.07646433 -0.06492874 19.36959839 -0.08062744 C25.60114088 -0.11628065 31.83231171 -0.11973939 38.06394029 -0.11531663 C43.26526156 -0.11412825 48.46650518 -0.12756718 53.6678068 -0.14069957 C66.64129012 -0.17278256 79.61453343 -0.17294666 92.58803608 -0.15933564 C103.84724479 -0.14859512 115.10585843 -0.18065729 126.36493615 -0.23279432 C137.93201476 -0.28594265 149.4987379 -0.30856379 161.06594771 -0.30095404 C167.55757495 -0.29707198 174.0486282 -0.30521069 180.54015541 -0.34356117 C186.64640588 -0.3783852 192.75143647 -0.37460572 198.85768318 -0.34122276 C201.09740187 -0.33544274 203.33720385 -0.34328821 205.57681656 -0.36582947 C224.62528412 -0.54408431 224.62528412 -0.54408431 229.79806519 4.52639771 C231.34507275 6.64227772 231.34507275 6.64227772 232.5690155 8.65510559 C233.43602116 9.68314058 234.31634966 10.70018614 235.21354675 11.70198059 C235.92897644 12.59401184 236.64440613 13.48604309 237.3815155 14.40510559 C238.10983582 15.30744934 238.83815613 16.20979309 239.58854675 17.13948059 C241.5690155 19.65510559 241.5690155 19.65510559 242.64560127 21.78199863 C245.71064823 24.76687869 249.27834182 24.19351043 253.32411194 24.14044189 C254.22969601 24.14441532 255.13528008 24.14838874 256.06830609 24.15248257 C259.11555452 24.16110277 262.16196383 24.14120788 265.20915222 24.12165833 C267.38864762 24.12220679 269.56814322 24.12457979 271.74763489 24.12864685 C276.44746759 24.13383264 281.14706756 24.12672379 285.84687424 24.11039543 C293.27524957 24.08534614 300.7033933 24.09154225 308.13179016 24.10287476 C326.58447965 24.12611071 345.0371177 24.10768457 363.48979187 24.08137512 C377.82500063 24.06131619 392.16005547 24.05282096 406.49526799 24.0783115 C413.88268442 24.09014943 421.26957797 24.07842173 428.65694022 24.04905879 C433.25044264 24.03582296 437.84374125 24.04320873 442.43723679 24.05633926 C444.57017546 24.0581992 446.70314131 24.05145024 448.83602142 24.03553581 C451.74455626 24.01501607 454.65143544 24.02507468 457.55995178 24.04278564 C458.40713174 24.02938391 459.25431169 24.01598217 460.12716377 24.00217432 C464.39627101 24.06211652 466.08877195 24.28995879 469.5966053 26.95709324 C472.2154793 30.53938784 472.20612333 33.53332322 472.05729675 37.79963684 C472.05022202 38.56942368 472.04314728 39.33921051 472.03585815 40.13232422 C472.00798475 42.57842862 471.94526687 45.02219943 471.8815155 47.46760559 C471.85642318 49.13098386 471.83361163 50.79439821 471.81315613 52.45783997 C471.75818221 56.52448716 471.67196477 60.58940148 471.5690155 64.65510559 C472.17898376 64.62892151 472.78895203 64.60273743 473.41740417 64.57575989 C476.19684308 64.4714484 478.97586989 64.40667577 481.7565155 64.34260559 C482.71622253 64.30071106 483.67592957 64.25881653 484.66471863 64.21565247 C486.06174011 64.19148254 486.06174011 64.19148254 487.48698425 64.16682434 C488.76738586 64.12754822 488.76738586 64.12754822 490.07365417 64.08747864 C492.84825886 64.71862587 494.53932181 65.6443006 496.5017575 67.71747947 C499.0717842 72.38340923 498.24474786 78.27796861 498.19720459 83.4697113 C498.20224967 84.90987608 498.2094782 86.35003459 498.21870273 87.79017866 C498.2376593 91.74840659 498.22537233 95.70601804 498.2079798 99.66423059 C498.19462608 103.93300171 498.21003605 108.20168142 498.22180176 112.47044373 C498.2402005 120.83491652 498.23164994 129.19915602 498.21371353 137.5636216 C498.19969386 144.36405465 498.19579338 151.16442433 498.19915581 157.96487045 C498.19987197 159.416155 498.19987197 159.416155 498.2006026 160.89675843 C498.20162893 162.86227773 498.20268429 164.82779702 498.20376837 166.79331629 C498.21234066 184.18365341 498.19564634 201.57387791 498.16593933 218.96418762 C498.13712741 235.83077227 498.13000505 252.6971945 498.14543152 269.563797 C498.16220644 287.92987288 498.16621262 306.2958716 498.14872116 324.66194952 C498.1468768 326.62211505 498.14504207 328.58228059 498.14321709 330.54244614 C498.142305 331.50686196 498.14139291 332.47127778 498.14045318 333.46491832 C498.13485376 340.25206823 498.13814968 347.03918042 498.14476204 353.82632828 C498.15250764 362.10547723 498.14569935 370.3844665 498.120587 378.66358335 C498.10811727 382.88571604 498.10191442 387.10760048 498.11312866 391.32974243 C498.12321416 395.20015412 498.11462048 399.0700722 498.09154748 402.94042413 C498.08641383 404.33547305 498.08790344 405.73056667 498.09694213 407.12559576 C498.17361843 420.04132487 495.63882136 430.15425945 486.5690155 439.65510559 C475.23068342 450.47903319 462.99895629 451.24312798 448.07791138 451.16304016 C446.20288041 451.16765383 444.32785307 451.17400986 442.45283324 451.18194914 C437.3205785 451.1986014 432.18862242 451.19041472 427.0563668 451.17800426 C421.51369285 451.16893938 415.97106959 451.18293061 410.42840576 451.19392395 C399.5785773 451.21169801 388.7288596 451.20787421 377.87902682 451.19627339 C369.06071529 451.18723545 360.24243478 451.18601663 351.42411995 451.19036865 C350.16848356 451.19098158 348.91284718 451.19159452 347.61916121 451.19222602 C345.06827738 451.19350494 342.51739357 451.19480179 339.96650977 451.19611639 C316.73618771 451.20719385 293.50593047 451.19571163 270.27562214 451.174746 C249.08001195 451.15576216 227.8844979 451.15746499 206.68888855 451.17658997 C182.86040847 451.19801888 159.03198139 451.2064225 135.20348841 451.19414091 C132.66235738 451.19286673 130.12122634 451.19160924 127.58009529 451.19036865 C126.32984122 451.18975155 125.07958714 451.18913445 123.79144658 451.18849865 C114.98396697 451.18504597 106.17652149 451.19087228 97.36904716 451.20028687 C86.63542094 451.2115083 75.90191172 451.20846355 65.16829889 451.18716389 C59.6926226 451.17665589 54.21714135 451.17252761 48.74146652 451.1857605 C43.72721638 451.19769498 38.71334176 451.19110417 33.6991256 451.16985029 C31.88704458 451.16538877 30.07493173 451.16764035 28.26287126 451.17735344 C14.53546152 451.24528116 5.00928716 449.81709608 -5.23176575 440.02619934 C-12.82051221 431.84437145 -14.73010105 423.89903301 -14.73738098 412.9556427 C-14.74986626 411.35703651 -14.74986626 411.35703651 -14.76260376 409.72613525 C-14.78665428 406.21153592 -14.79546816 402.69712217 -14.80207825 399.18244934 C-14.81104544 396.73677515 -14.8201673 394.29110153 -14.82943726 391.84542847 C-14.8459143 386.72362434 -14.85362556 381.6018855 -14.85652161 376.48005676 C-14.86191653 369.91362502 -14.89964874 363.34780518 -14.94526577 356.78154659 C-14.97498154 351.7329686 -14.98224392 346.68453929 -14.98324776 341.63588142 C-14.98745776 339.21453092 -14.99992307 336.79318028 -15.0207653 334.37191582 C-15.04757601 330.98920675 -15.04288494 327.60793447 -15.03034973 324.22517395 C-15.04518402 323.22399536 -15.06001831 322.22281677 -15.07530212 321.19129944 C-15.02621546 316.54710361 -14.96176192 314.36310755 -12.10836792 310.55697632 C-8.72143348 308.1510783 -6.57922134 307.65510559 -2.4309845 307.65510559 C1.58420614 309.17027187 3.17269903 310.06063089 5.5690155 313.65510559 C5.82234859 315.5764637 5.82234859 315.5764637 5.82730103 317.78965759 C5.83754303 319.05107826 5.83754303 319.05107826 5.84799194 320.33798218 C5.84416252 321.71723122 5.84416252 321.71723122 5.84025574 323.12434387 C5.84548248 324.09543594 5.85070923 325.06652802 5.85609436 326.06704712 C5.86634506 328.17868048 5.87211662 330.29033919 5.87397575 332.40199661 C5.87763451 335.74852049 5.89435007 339.0947467 5.91473389 342.44120789 C5.97017855 351.95711213 6.00076976 361.47306126 6.02531433 370.98908997 C6.04123041 376.80871356 6.07149822 382.6281282 6.11007881 388.44764328 C6.12169961 390.66188709 6.12765891 392.87616836 6.12775993 395.09044266 C6.12795298 398.19701537 6.14629413 401.3030166 6.16838074 404.40950012 C6.16380356 405.3168541 6.15922638 406.22420807 6.1545105 407.15905762 C6.22037743 413.01581751 7.00318983 418.32830256 9.5690155 423.65510559 C14.27529161 428.24659448 17.63816275 429.0100974 24.02604675 428.93635559 C27.76081969 428.52329315 29.80843378 427.14636227 32.5690155 424.65510559 C36.30494282 419.63092748 36.69402105 414.78641063 36.69371414 408.66584015 C36.69730057 406.85287532 36.69730057 406.85287532 36.70095944 405.00328493 C36.69858112 403.66550463 36.69612112 402.32772447 36.69358826 400.98994446 C36.6945747 399.56613615 36.69601199 398.14232809 36.69786143 396.71852064 C36.70091967 393.62295753 36.70081345 390.52741591 36.69830513 387.43185234 C36.69424429 382.39526681 36.69701507 377.35869809 36.70065308 372.32211304 C36.70474305 365.95814715 36.7069827 359.59418503 36.70706907 353.23021781 C36.70727176 340.72888563 36.71972873 328.22759224 36.73667908 315.72627258 C36.73928484 313.75854445 36.74188365 311.79081632 36.7444756 309.82308817 C36.74841397 306.84104815 36.7523605 303.85900814 36.75633682 300.87696818 C36.77128175 289.63553504 36.78490766 278.39410072 36.79704285 267.15266418 C36.79815641 266.12504115 36.79926997 265.09741811 36.80041727 264.03865498 C36.81800369 247.37487323 36.82086055 230.71111575 36.81919244 214.04732627 C36.81791439 196.94436438 36.83562222 179.84149302 36.87021041 162.73856592 C36.89088493 152.18564007 36.89617938 141.63293079 36.8818821 131.07999337 C36.87343712 123.85208361 36.88311746 116.62434262 36.9071916 109.39646852 C36.92052722 105.2236296 36.92563981 101.05119524 36.90907097 96.87835884 C36.89407676 93.05998039 36.9019685 89.24236585 36.92824051 85.42405468 C36.93367489 84.04122392 36.93062128 82.65832896 36.91832355 81.2755422 C36.90285298 79.39853374 36.92104043 77.52133763 36.9409523 75.64437103 C36.94184793 74.07924231 36.94184793 74.07924231 36.94276166 72.48249483 C37.81954752 68.52401228 39.34470118 67.06256202 42.5690155 64.65510559 C45.81252795 64.03411311 45.81252795 64.03411311 49.57175922 64.03986645 C50.61623031 64.03121262 50.61623031 64.03121262 51.68180183 64.02238396 C54.02097116 64.00912221 56.35842818 64.03159727 58.69750977 64.05383301 C60.38887249 64.05165302 62.08023358 64.04727583 63.77158564 64.04088718 C68.42374825 64.02968991 73.07533695 64.04973002 77.72742641 64.07477748 C82.74238195 64.09633901 87.75730425 64.08906511 92.77229309 64.08526611 C101.46253968 64.0826424 110.1525988 64.09835026 118.84279823 64.12645531 C131.40738676 64.16706414 143.97188449 64.18010985 156.53653153 64.18639527 C176.92102747 64.19734255 197.30542346 64.23062856 217.68986511 64.27790833 C237.49324544 64.32379266 257.29659862 64.35919009 277.10002136 64.38044739 C278.32038894 64.38176101 279.54075651 64.38307462 280.79810492 64.38442805 C286.92023672 64.39095316 293.04236871 64.39727172 299.16450083 64.40348756 C349.96607547 64.45533409 400.76753906 64.54378251 451.5690155 64.65510559 C451.5690155 58.05510559 451.5690155 51.45510559 451.5690155 44.65510559 C448.86818787 44.67287048 446.16736023 44.69063538 443.38468933 44.7089386 C417.95778989 44.87236446 392.53095965 44.99144754 367.10365295 45.06960297 C354.03053555 45.11085359 340.95780352 45.16709274 327.88493347 45.25862122 C316.49057795 45.3383597 305.09650152 45.3899717 293.70187473 45.40781355 C287.66835545 45.41824309 281.63563459 45.44275256 275.60237122 45.50094604 C269.92228047 45.55528862 264.2433162 45.57198966 258.56299019 45.55996704 C256.47963906 45.5621661 254.39624988 45.57805609 252.3131237 45.60874939 C236.57512009 45.82924272 236.57512009 45.82924272 231.60473633 42.92016602 C229.57721992 40.930734 228.08301754 39.04664946 226.5690155 36.65510559 C225.69995728 35.62880517 224.81953987 34.61193881 223.92448425 33.60823059 C222.85133972 32.27018372 222.85133972 32.27018372 221.7565155 30.90510559 C221.02819519 30.00276184 220.29987488 29.10041809 219.54948425 28.17073059 C217.5690155 25.65510559 217.5690155 25.65510559 216.46368694 23.5303154 C214.00901337 21.10085567 212.07226917 21.16502076 208.71159059 21.11260724 C207.90712092 21.12036766 207.10265125 21.12812808 206.27380371 21.13612366 C205.41777799 21.12862241 204.56175228 21.12112115 203.67978638 21.11339259 C200.80057828 21.09303183 197.92215139 21.10123443 195.04289246 21.10920715 C192.98335487 21.1004767 190.92382407 21.08999277 188.86430359 21.07788086 C183.26336659 21.0499357 177.66264998 21.04661805 172.06165338 21.04760075 C166.21193986 21.04447895 160.36232668 21.01887609 154.51266479 20.99562073 C143.43110989 20.95500087 132.34961392 20.93470595 121.26799601 20.92164683 C108.65384498 20.90579704 96.03979454 20.86738997 83.42570174 20.82705355 C57.47350672 20.74457268 31.52131438 20.69053175 5.5690155 20.65510559 C5.57270267 21.74308787 5.57638985 22.83107016 5.58018875 23.9520216 C5.66893214 50.40803088 5.73469245 76.8640209 5.77626419 103.32014751 C5.79690161 116.11406426 5.82504486 128.90788276 5.87077332 141.70173645 C5.91060482 152.8510505 5.93643973 164.0002934 5.94536948 175.14967662 C5.95059044 181.0548472 5.96288633 186.95981423 5.99193573 192.86491966 C6.01904643 198.4208428 6.02746922 203.97647817 6.02144623 209.53246117 C6.0225484 211.57348697 6.03052797 213.6145222 6.0458374 215.65549088 C6.06569716 218.43918043 6.06096927 221.22177912 6.05003357 224.00549316 C6.06168494 224.81581 6.0733363 225.62612683 6.08534074 226.46099871 C6.0451447 230.23842109 5.72017331 232.41880736 3.66395187 235.63320637 C0.42470835 238.75951801 -1.89143556 238.98898785 -6.391922 238.94807434 C-9.56233017 238.49255593 -11.2502247 236.90194902 -13.4309845 234.65510559 C-15.107474 231.30212658 -14.58278433 227.51837405 -14.58488464 223.83044434 C-14.5892669 222.90529693 -14.59364915 221.98014952 -14.5981642 221.02696735 C-14.61158464 217.90781286 -14.61773831 214.78868665 -14.62385559 211.66950989 C-14.63175392 209.4409014 -14.6400227 207.2122942 -14.64863586 204.98368835 C-14.67488427 197.64891283 -14.69016502 190.3141315 -14.704422 182.97932434 C-14.70978027 180.45779224 -14.71515778 177.93626018 -14.72055435 175.41472816 C-14.74218605 164.9293341 -14.7610759 154.44394017 -14.77217674 143.95852947 C-14.7751065 141.23702681 -14.77806816 138.51552418 -14.78108215 135.79402161 C-14.7818282 135.11759461 -14.78257425 134.44116761 -14.78334291 133.74424282 C-14.79599971 122.78367289 -14.82922681 111.82326507 -14.87088399 100.86277094 C-14.91328908 89.61341313 -14.93646231 78.36413516 -14.94209731 67.11468822 C-14.94575762 60.79704175 -14.95785146 54.47967006 -14.99020004 48.16209984 C-15.020188 42.22033388 -15.02662549 36.27901031 -15.01481628 30.33718491 C-15.01459478 28.15425153 -15.0229628 25.97129817 -15.04047012 23.78843498 C-15.06304623 20.81199144 -15.05492018 17.83716782 -15.03898621 14.86071777 C-15.05286829 13.99340096 -15.06675038 13.12608414 -15.08105314 12.232485 C-15.02718252 8.15877665 -14.72871017 6.11873982 -12.48242092 2.62069893 C-8.24715046 -0.1074652 -4.94485222 -0.05057382 0 0 Z M57.5690155 84.65510559 C57.5690155 106.43510559 57.5690155 128.21510559 57.5690155 150.65510559 C74.69369449 151.06277912 74.69369449 151.06277912 91.8190155 151.33869934 C98.8120774 151.42218437 105.80255711 151.52058576 112.79362488 151.71125793 C118.43491956 151.86414202 124.0734446 151.94723544 129.71665192 151.98338699 C131.86189625 152.00912347 134.00700003 152.0593884 136.15105438 152.13532639 C148.65797167 152.91679049 148.65797167 152.91679049 159.460495 147.65614319 C162.11959676 144.79814185 164.3216975 141.73391316 166.39572906 138.4328804 C167.60567577 136.5995576 168.93607913 134.98210761 170.37522888 133.32450867 C172.78065652 130.97344726 172.78065652 130.97344726 172.5690155 128.65510559 C175.55888867 127.6584812 177.53220742 127.52549832 180.65460491 127.51644039 C181.71256352 127.51096595 182.77052213 127.5054915 183.86054009 127.49985117 C185.61003188 127.49838401 185.61003188 127.49838401 187.39486694 127.49688721 C188.63066303 127.49194923 189.86645912 127.48701125 191.13970357 127.48192364 C194.57620964 127.46919268 198.012675 127.46091932 201.44919527 127.45449698 C205.15266546 127.44650043 208.85611498 127.43280009 212.55957031 127.41978455 C218.97816509 127.39801121 225.39676195 127.37986986 231.81537437 127.36417961 C241.09566561 127.34148879 250.37593397 127.31334487 259.65620581 127.28386033 C274.71201184 127.23617476 289.76782721 127.19291319 304.82365417 127.15242004 C319.45094022 127.11307003 334.07821796 127.07164499 348.70549011 127.02742004 C349.60677461 127.02469577 350.5080591 127.0219715 351.43665525 127.01916467 C355.95803296 127.00548528 360.47941056 126.99176499 365.00078809 126.97802436 C402.52351346 126.86404442 440.04625689 126.75751047 477.5690155 126.65510559 C477.5690155 112.79510559 477.5690155 98.93510559 477.5690155 84.65510559 C338.9690155 84.65510559 200.3690155 84.65510559 57.5690155 84.65510559 Z M174.57943201 158.97824645 C173.12357376 161.39434832 171.29011187 163.40145321 169.3815155 165.46760559 C168.85171082 166.0721759 168.32190613 166.67674622 167.77604675 167.29963684 C165.68654477 169.64610023 165.68654477 169.64610023 163.75929165 169.79377079 C162.56603063 169.80344962 162.56603063 169.80344962 161.34866333 169.81332397 C160.43856003 169.82311279 159.52845673 169.83290161 158.59077454 169.84298706 C157.58449005 169.84874252 156.57820557 169.85449799 155.54142761 169.86042786 C154.48789597 169.87032745 153.43436432 169.88022705 152.34890747 169.89042664 C148.84808134 169.92214854 145.34724161 169.94684116 141.84635925 169.97151184 C139.42639808 169.99207215 137.00644057 170.01306836 134.58648682 170.03448486 C128.20290589 170.08980094 121.81929205 170.13916802 115.43565369 170.18733215 C108.92734329 170.23747774 102.41908096 170.29319996 95.91081238 170.34846497 C83.13025472 170.4561631 70.34965607 170.55777121 57.5690155 170.65510559 C57.56570536 171.95254731 57.56239521 173.24998903 57.55898476 174.58674717 C57.47996116 205.38779091 57.39073899 236.18878634 57.28896389 266.98976267 C57.27644507 270.78112348 57.26401229 274.57248456 57.25163269 278.36384583 C57.2479337 279.49602987 57.2479337 279.49602987 57.24415998 280.65108632 C57.20444008 292.87131359 57.17168934 305.0915501 57.14151569 317.31180424 C57.11039782 329.85161341 57.07178697 342.39138338 57.02622545 354.93114847 C56.9983493 362.66837525 56.97631247 370.40557337 56.961753 378.14283686 C56.94996119 384.0765243 56.92774253 390.01014398 56.90163231 395.94378662 C56.8925563 398.37740997 56.88686625 400.81104864 56.88480186 403.24468803 C56.88147958 406.56605548 56.86600251 409.88715309 56.8474884 413.20846558 C56.84942314 414.1724856 56.85135787 415.13650563 56.85335124 416.12973839 C56.84588574 417.02497481 56.83842025 417.92021123 56.83072853 418.84257603 C56.82845021 419.60847193 56.82617189 420.37436784 56.82382452 421.16347271 C56.48620764 424.46483667 55.54212833 427.49013698 54.5690155 430.65510559 C105.77265481 430.70087023 156.97629206 430.7361183 208.17994779 430.75723625 C214.22321128 430.7597377 220.26647473 430.76232634 226.30973816 430.76496887 C227.51285743 430.76549349 228.7159767 430.76601811 229.95555413 430.76655863 C249.44349986 430.77526435 268.93143382 430.79103525 288.41937256 430.80941118 C308.41158984 430.82810558 328.40380095 430.83922134 348.39602661 430.84328258 C360.73508107 430.84602859 373.07410223 430.8547058 385.41314644 430.87093852 C393.87124478 430.88149972 402.32932588 430.88470817 410.78743035 430.88210835 C415.66933665 430.88082571 420.55118469 430.88281014 425.43308067 430.89351654 C429.90291841 430.90324775 434.3726587 430.9037413 438.84250093 430.89690338 C440.45905444 430.89605822 442.07561404 430.89859637 443.6921556 430.90487196 C458.60477747 431.2322374 458.60477747 431.2322374 471.5690155 424.65510559 C477.6900996 416.91276138 477.71678745 409.45000557 477.68927002 399.91111755 C477.69012444 398.82793318 477.69097887 397.74474881 477.69185919 396.62874067 C477.69350637 392.99900304 477.68800503 389.36931162 477.68254089 385.73957825 C477.68225883 383.1377411 477.68241713 380.53590387 477.6829834 377.93406677 C477.68350729 372.33237352 477.68037456 366.73069193 477.67474556 361.12900162 C477.66661231 353.02993722 477.66401347 344.93087844 477.66275757 336.8318104 C477.66056992 323.69103711 477.65391761 310.55027004 477.64445496 297.40950012 C477.63527342 284.64582856 477.62819621 271.88215869 477.62394714 259.1184845 C477.62368442 258.33149401 477.6234217 257.54450351 477.62315101 256.73366483 C477.62184596 252.78549383 477.62058225 248.83732283 477.61933911 244.88915181 C477.60897544 212.14446521 477.59136492 179.39978623 477.5690155 146.65510559 C440.57450233 146.33444053 403.58019902 146.08785982 366.58457653 145.94019098 C362.21382736 145.92268175 357.84308091 145.90456117 353.47233582 145.88606262 C352.60222403 145.88239028 351.73211224 145.87871793 350.83563343 145.8749343 C336.75921929 145.81406729 322.68360817 145.70371364 308.60766992 145.57496645 C294.15706352 145.4438978 279.70687674 145.36625229 265.25570035 145.33786666 C256.34285875 145.3186857 247.43228692 145.25818589 238.52014437 145.14427505 C232.40299697 145.07008647 226.28701727 145.04794372 220.169453 145.06608631 C216.64244767 145.07502864 213.11939715 145.06164964 209.5931015 144.98622894 C193.94778245 144.66787114 182.92038834 144.4501262 174.57943201 158.97824645 Z " fill="#2424C2" transform="translate(14.430984497070313,30.344894409179688)"/>
<path d="M0 0 C1.04540199 -0.01073296 1.04540199 -0.01073296 2.11192322 -0.02168274 C3.58526335 -0.02944414 5.05871891 -0.02448021 6.53198242 -0.00756836 C8.74824308 0.01146878 10.95805175 -0.02752993 13.17382812 -0.07226562 C23.2861165 -0.13181982 31.63467759 1.54784852 39.63110352 8.32275391 C47.01030548 16.19223428 48.33307216 24.97564574 48.31640625 35.40625 C48.3249765 36.60803391 48.33354675 37.80981781 48.34237671 39.04801941 C48.35381676 41.58024588 48.35489824 44.11253805 48.34619141 46.64477539 C48.33987899 50.490253 48.38681273 54.33263735 48.4375 58.17773438 C48.44204775 60.64973574 48.44345216 63.1217453 48.44140625 65.59375 C48.45982574 66.72851273 48.47824524 67.86327545 48.4972229 69.03242493 C48.39471376 78.01158745 45.954878 85.81613538 39.97477722 92.70318604 C38.31724 94.28018751 36.65517551 95.4896514 34.71484375 96.69921875 C33.85354858 97.24340454 33.85354858 97.24340454 32.97485352 97.79858398 C26.02155896 101.4538456 18.86825227 101.34197489 11.21142578 101.27563477 C8.95458517 101.26165521 6.70181155 101.29605796 4.4453125 101.33398438 C2.99869691 101.33493481 1.55207616 101.33308084 0.10546875 101.328125 C-1.19358398 101.3288501 -2.49263672 101.3295752 -3.83105469 101.33032227 C-8.29523003 100.51466682 -9.52306584 99.27271922 -12.28515625 95.69921875 C-13.00212933 92.77803507 -12.96930976 89.94588497 -12.93212891 86.94921875 C-12.9408905 86.07869873 -12.9496521 85.20817871 -12.9586792 84.3112793 C-12.9806462 81.4400821 -12.96613024 78.57043099 -12.94921875 75.69921875 C-12.95258766 73.70051783 -12.95744091 71.70181891 -12.9637146 69.703125 C-12.97108227 65.51672843 -12.96038366 61.33086571 -12.93701172 57.14453125 C-12.90852419 51.78073636 -12.9249287 46.41819236 -12.95487404 41.05444336 C-12.97294975 36.92796417 -12.96718769 32.80178112 -12.95423508 28.67529297 C-12.95090183 26.6977524 -12.95498528 24.72018486 -12.96663284 22.74267578 C-12.97934599 19.97746672 -12.95995863 17.2142775 -12.93212891 14.44921875 C-12.94731064 13.22561646 -12.94731064 13.22561646 -12.96279907 11.97729492 C-12.88421919 7.75867771 -12.62983456 6.14428823 -9.95762634 2.69377136 C-6.47866496 0.09730769 -4.31646457 0.04048299 0 0 Z M7.71484375 20.69921875 C7.71484375 40.49921875 7.71484375 60.29921875 7.71484375 80.69921875 C17.05013538 81.0959647 17.05013538 81.0959647 24.71484375 77.69921875 C27.70793427 72.22694073 28.15909957 67.67492859 28.11328125 61.51171875 C28.11615143 60.6503833 28.11902161 59.78904785 28.12197876 58.90161133 C28.12401036 57.08967426 28.11854411 55.2777148 28.10595703 53.46582031 C28.08989011 50.70717898 28.10583626 47.95000253 28.125 45.19140625 C28.12301741 43.42317388 28.1191734 41.65494241 28.11328125 39.88671875 C28.11935394 39.06985596 28.12542664 38.25299316 28.13168335 37.41137695 C28.06735426 32.12090917 27.26861395 28.36828586 24.71484375 23.69921875 C18.71867912 19.90572684 15.38159164 20.69921875 7.71484375 20.69921875 Z " fill="#2424C2" transform="translate(344.28515625,340.30078125)"/>
<path d="M0 0 C0.825 -0.01289063 1.65 -0.02578125 2.5 -0.0390625 C6.13326486 0.92602348 7.61578941 2.76237722 10 5.625 C10.61904907 8.64682007 10.61904907 8.64682007 10.61181641 12.04833984 C10.62177643 13.32671722 10.63173645 14.6050946 10.64199829 15.92221069 C10.62859482 17.31012036 10.61511432 18.69802928 10.6015625 20.0859375 C10.60706717 21.51935022 10.61519585 22.95275503 10.62582397 24.38613892 C10.64868277 28.15488674 10.64450341 31.92305407 10.63201904 35.6918335 C10.61369998 41.71593706 10.62381053 47.73969848 10.65787888 53.76372147 C10.66394936 55.85938032 10.65076438 57.95429583 10.63589478 60.04989624 C10.60360589 69.26630673 10.60360589 69.26630673 14 77.625 C17.14341993 79.19670996 20.55771451 78.85675783 24 78.625 C24.99 78.295 25.98 77.965 27 77.625 C28.72456175 72.99952175 29.24717611 68.85164629 29.23950195 63.94287109 C29.24323318 62.65818939 29.24696442 61.37350769 29.25080872 60.04989624 C29.24850565 59.37342419 29.24620258 58.69695213 29.24382973 57.99998093 C29.23819018 55.8639419 29.24746795 53.72843652 29.2610321 51.59243774 C29.29798123 45.5244892 29.31667642 39.45673009 29.30541992 33.38867188 C29.29956195 29.66502482 29.31785149 25.9421388 29.35130882 22.218647 C29.35924503 20.80492912 29.35800984 19.39112791 29.34728432 17.97742844 C29.33292487 16.00110013 29.35192724 14.02461516 29.37231445 12.04833984 C29.37325859 10.36458755 29.37325859 10.36458755 29.3742218 8.64682007 C30.19815999 4.66810531 31.8989595 3.16084903 35 0.625 C37.5 -0.0390625 37.5 -0.0390625 40 0 C40.825 -0.01289063 41.65 -0.02578125 42.5 -0.0390625 C46.15438564 0.93163369 47.61720506 2.72700368 50 5.625 C50.64164734 8.91688538 50.64164734 8.91688538 50.6628418 12.70336914 C50.67320969 13.39683441 50.68357758 14.09029968 50.69425964 14.80477905 C50.72129125 17.09051295 50.71167061 19.37432062 50.69921875 21.66015625 C50.70513358 23.26094594 50.71238278 24.8617312 50.72090149 26.46250916 C50.73277869 29.81923437 50.72608773 33.1752966 50.70678711 36.53198242 C50.68402304 40.80353305 50.71054179 45.07307781 50.75184917 49.34442997 C50.77762604 52.65371365 50.7747918 55.96253111 50.76395607 59.2718792 C50.76248283 60.84452562 50.77000157 62.41721026 50.78720665 63.98976326 C50.88597071 74.77529268 49.67697711 84.13618029 42.25907898 92.61488342 C40.60375472 94.20547011 38.94399574 95.40697778 37 96.625 C36.37867188 97.03492188 35.75734375 97.44484375 35.1171875 97.8671875 C28.13757762 101.71526139 19.73954955 101.87554524 12 100.625 C2.64238997 97.65948641 -3.60033186 92.54612033 -8.12084961 83.93652344 C-11.12897825 76.96177258 -10.59598192 69.40643593 -10.56640625 61.953125 C-10.57164899 60.34128461 -10.57792785 58.7294473 -10.58518982 57.11761475 C-10.5955503 53.75550797 -10.5910915 50.39382567 -10.57641602 47.03173828 C-10.5591666 42.72846758 -10.58282049 38.4265245 -10.61790562 34.12340164 C-10.63987572 30.80158689 -10.63844035 27.48009071 -10.6301403 24.15822601 C-10.62932186 22.57142421 -10.63616482 20.98459878 -10.65091133 19.3978653 C-10.66836778 17.18140398 -10.65381457 14.967342 -10.63110352 12.75097656 C-10.63014175 11.49238831 -10.62917999 10.23380005 -10.62818909 8.93707275 C-9.53238772 3.15955458 -5.88917823 -0.09201841 0 0 Z " fill="#2424C2" transform="translate(262,340.375)"/>
<path d="M0 0 C11.02198313 6.36459623 11.02198313 6.36459623 13.375 12.3125 C13.59851216 16.54433025 13.06599922 20.20690125 10.8125 23.8125 C7.41053411 25.90601747 4.35972926 26.52012116 0.375 26.3125 C-2.25 25.125 -2.25 25.125 -4.625 23.3125 C-8.02206091 20.72777974 -10.05924418 19.39880173 -14.3125 18.75 C-17.73416233 18.98191591 -17.73416233 18.98191591 -19.625 21.5 C-20.78466736 24.76156446 -20.73096514 26.06497555 -19.625 29.3125 C-17.61114862 30.96552686 -17.61114862 30.96552686 -14.99609375 32.14453125 C-14.04283203 32.63373047 -13.08957031 33.12292969 -12.10742188 33.62695312 C-10.60018555 34.36848633 -10.60018555 34.36848633 -9.0625 35.125 C1.39015784 40.28587061 10.15780489 45.97134253 14.375 57.3125 C16.80128683 65.21432603 16.04102955 73.54482261 12.640625 80.9921875 C8.3180232 88.91695747 3.14806164 94.42082047 -5.625 97.3125 C-17.47671941 98.40728826 -26.6271062 97.14068008 -36.4375 90 C-41.41534435 85.86062234 -45.21816648 82.26204299 -46.125 75.6875 C-45.59403419 72.10348079 -44.82608468 70.16575792 -42.625 67.3125 C-38.59546999 64.62614666 -35.3594704 64.63495212 -30.625 65.3125 C-27.875 67 -27.875 67 -25.625 69.3125 C-24.2946875 70.6428125 -24.2946875 70.6428125 -22.9375 72 C-22.174375 72.763125 -21.41125 73.52625 -20.625 74.3125 C-17.40947181 75.92026409 -14.10294 75.91735913 -10.625 75.3125 C-7.62506885 72.76255852 -6.77019541 71.18367244 -6.125 67.3125 C-6.78087576 63.37724542 -7.79973575 62.175659 -10.625 59.3125 C-13.99527333 57.25721985 -17.51494801 55.53912039 -21.0625 53.8125 C-30.78882566 49.05918274 -37.85841356 44.64395405 -41.875 34 C-43.66342684 25.20690138 -42.81682027 17.00010497 -38.37109375 9.078125 C-29.71021279 -3.47661252 -13.48322675 -6.59781485 0 0 Z " fill="#2424C2" transform="translate(324.625,223.6875)"/>
<path d="M0 0 C9.64301309 7.40419518 9.64301309 7.40419518 10.2734375 11.98828125 C10.46054969 16.27027177 10.42962856 18.37508572 7.9375 22 C4.40055558 24.40813237 2.27436594 25 -2 25 C-5.43094406 23.66963394 -7.98747907 22.0093241 -10.9375 19.8125 C-14.61865873 17.63385504 -16.78984966 17.43324899 -21 18 C-23.4294516 21.6441774 -23.16179575 23.71241272 -23 28 C-22.30962646 28.35191406 -21.61925293 28.70382812 -20.90795898 29.06640625 C-17.74167377 30.69321901 -14.5898053 32.3462718 -11.4375 34 C-10.35146484 34.55300781 -9.26542969 35.10601562 -8.14648438 35.67578125 C0.57790615 40.2898966 7.57410699 45.86011094 11.33984375 55.25 C13.31485906 63.47728271 13.45009358 73.49965493 9.31640625 81.046875 C4.52631026 88.15384235 -0.52069471 93.60727016 -9 96 C-19.54899138 97.21018886 -29.10742114 96.60754014 -37.72265625 89.87109375 C-47.51334759 81.32008707 -47.51334759 81.32008707 -48.50390625 76.59765625 C-48.6545161 70.08127018 -48.6545161 70.08127018 -46.93359375 67.23828125 C-44.22759881 64.66500541 -41.73698864 63.94909458 -38.125 63.25 C-32.732389 63.56963851 -29.67325703 67.42215224 -26 71 C-21.95023157 74.06202003 -19.07313099 74.64567122 -14 74 C-11.39685006 72.6469872 -11.39685006 72.6469872 -10 70 C-9.31414363 65.88808202 -9.31414363 65.88808202 -10 62 C-14.64798249 56.03091045 -21.57020231 53.47142666 -28.25195312 50.28125 C-35.4718886 46.68412912 -41.56589442 42.11152494 -44.52734375 34.2734375 C-46.18984647 26.27693683 -46.26189526 17.29651919 -42.3203125 9.9921875 C-32.74028993 -4.46287614 -15.64737296 -9.6496576 0 0 Z " fill="#2424C2" transform="translate(140,345)"/>
<path d="M0 0 C4.19377276 2.05732249 5.45273074 3.44821042 7.00067139 7.8374176 C7.30563538 8.95527145 7.61059937 10.07312531 7.92480469 11.22485352 C8.2672522 12.47879913 8.60969971 13.73274475 8.96252441 15.02468872 C10.68941297 21.58844951 12.30717668 28.17782877 13.890625 34.77734375 C14.2435987 36.24272958 14.5966064 37.70810722 14.949646 39.17347717 C15.68126831 42.21415068 16.41024251 45.25544561 17.13769531 48.29711914 C18.06714901 52.18103948 19.00681165 56.06241496 19.94882584 59.94330502 C20.67824492 62.95584913 21.40051582 65.97007425 22.12084198 68.98480415 C22.46430219 70.41706259 22.81035078 71.84870307 23.15912628 73.27967644 C23.64520724 75.27709628 24.12112792 77.2766888 24.59472656 79.27709961 C24.86690002 80.40957626 25.13907349 81.54205292 25.41949463 82.70884705 C26.24721336 87.40156668 26.73073143 91.43414693 24.6875 95.8125 C22.74161911 98.3349382 21.1275845 99.81840399 17.9140625 100.3359375 C14.18388808 100.39959235 11.5551422 100.25343448 8.125 98.6875 C4.14008986 93.64776071 3 87.32798547 3 81 C-1.95 81 -6.9 81 -12 81 C-12.103125 82.155 -12.20625 83.31 -12.3125 84.5 C-12.99074326 89.80348546 -14.20527576 94.79110863 -17.625 99 C-21.39854759 100.58886214 -24.97768552 100.65963089 -29 100 C-32.49890004 97.88608123 -33.70578686 96.88263941 -35 93 C-35.27438457 87.79784735 -34.55053178 83.14544869 -33.3034668 78.12451172 C-33.12296783 77.37074249 -32.94246887 76.61697327 -32.75650024 75.84036255 C-32.16213294 73.36810926 -31.55612575 70.89888985 -30.94921875 68.4296875 C-30.52996119 66.7030026 -30.11117064 64.97620424 -29.69282532 63.2492981 C-28.81617272 59.63869055 -27.93370443 56.02956769 -27.04711914 52.42138672 C-25.9128096 47.80289371 -24.79336153 43.18094899 -23.67827129 38.55778313 C-22.81700292 34.99435513 -21.94774526 31.43291313 -21.07608986 27.87201309 C-20.66016672 26.16861649 -20.24674907 24.46460605 -19.8359127 22.75997543 C-19.26029941 20.37680712 -18.67393377 17.99653523 -18.0847168 15.61669922 C-17.83439949 14.56612335 -17.83439949 14.56612335 -17.57902527 13.49432373 C-16.3671733 8.66842316 -14.70280927 4.89928726 -11.375 1.1875 C-7.59256504 -0.70371748 -4.13231361 -0.70428997 0 0 Z M-5 52 C-5.33 54.64 -5.66 57.28 -6 60 C-5.01 60 -4.02 60 -3 60 C-3.33 57.36 -3.66 54.72 -4 52 C-4.33 52 -4.66 52 -5 52 Z " fill="#2424C2" transform="translate(235,221)"/>
<path d="M0 0 C1.27431381 -0.0099852 1.27431381 -0.0099852 2.57437134 -0.02017212 C4.37149898 -0.03029556 6.16866419 -0.03498923 7.96582031 -0.03466797 C10.70961817 -0.03903553 13.45179988 -0.07534115 16.1953125 -0.11328125 C17.94270284 -0.11915069 19.69010081 -0.12311923 21.4375 -0.125 C22.6642897 -0.14655655 22.6642897 -0.14655655 23.91586304 -0.16854858 C27.91871404 -0.13659189 29.88747964 0.04382233 33.35791016 2.22827148 C36.15098453 5.18107716 36.2596676 7.22143478 36.4921875 11.1484375 C36.29358567 14.23779922 35.33903592 15.99355812 33.3515625 18.3359375 C29.95258577 20.60192198 28.78837077 20.57336404 24.80859375 20.53125 C23.19887695 20.52158203 23.19887695 20.52158203 21.55664062 20.51171875 C19.87731445 20.48658203 19.87731445 20.48658203 18.1640625 20.4609375 C17.03291016 20.45191406 15.90175781 20.44289062 14.73632812 20.43359375 C11.94131621 20.41000715 9.14641291 20.37413591 6.3515625 20.3359375 C6.3515625 26.9359375 6.3515625 33.5359375 6.3515625 40.3359375 C8.02605469 40.28953125 9.70054687 40.243125 11.42578125 40.1953125 C13.63019049 40.15779064 15.83461903 40.12139093 18.0390625 40.0859375 C19.14185547 40.05242187 20.24464844 40.01890625 21.38085938 39.984375 C29.52145173 39.88599926 29.52145173 39.88599926 33.55859375 42.07421875 C36.39470428 45.65179608 36.63921717 48.86130938 36.3515625 53.3359375 C34.78974931 57.0061985 33.69245654 58.1086748 30.3515625 60.3359375 C27.80786133 60.56298828 27.80786133 60.56298828 24.80859375 60.53125 C23.19887695 60.52158203 23.19887695 60.52158203 21.55664062 60.51171875 C20.43708984 60.49496094 19.31753906 60.47820312 18.1640625 60.4609375 C17.03291016 60.45191406 15.90175781 60.44289063 14.73632812 60.43359375 C11.94131621 60.41000715 9.14641291 60.37413591 6.3515625 60.3359375 C6.3515625 66.9359375 6.3515625 73.5359375 6.3515625 80.3359375 C8.02605469 80.28953125 9.70054687 80.243125 11.42578125 80.1953125 C13.63019049 80.15779064 15.83461903 80.12139093 18.0390625 80.0859375 C19.14185547 80.05242187 20.24464844 80.01890625 21.38085938 79.984375 C29.52145173 79.88599926 29.52145173 79.88599926 33.55859375 82.07421875 C36.39470428 85.65179608 36.63921717 88.86130938 36.3515625 93.3359375 C34.78974931 97.0061985 33.69245654 98.1086748 30.3515625 100.3359375 C27.43663802 100.5564002 24.61966861 100.66397729 21.703125 100.671875 C20.42881119 100.6818602 20.42881119 100.6818602 19.12875366 100.69204712 C17.33162602 100.70217056 15.53446081 100.70686423 13.73730469 100.70654297 C10.99350683 100.71091053 8.25132512 100.74721615 5.5078125 100.78515625 C3.76042216 100.79102569 2.01302419 100.79499423 0.265625 100.796875 C-0.5522348 100.81124603 -1.3700946 100.82561707 -2.21273804 100.84042358 C-6.17733971 100.80877225 -8.18860626 100.6186741 -11.64306641 98.49462891 C-15.31921983 94.53741578 -14.8023143 90.27899617 -14.80957031 85.18017578 C-14.81453522 84.3489621 -14.81950012 83.51774841 -14.82461548 82.66134644 C-14.83922895 79.90963922 -14.84603749 77.15798965 -14.8515625 74.40625 C-14.8573143 72.49437458 -14.86307203 70.58249917 -14.86883545 68.67062378 C-14.87934289 64.66078421 -14.88518735 60.65096468 -14.88867188 56.64111328 C-14.89415827 51.5040198 -14.9181905 46.36719114 -14.94664383 41.23018074 C-14.96527007 37.28049954 -14.97047579 33.33088215 -14.97200775 29.38116074 C-14.97503447 27.48733954 -14.98306365 25.59351947 -14.99619293 23.69974136 C-15.01325431 21.0497854 -15.0113731 18.40047694 -15.00488281 15.75048828 C-15.0140976 14.96901428 -15.02331238 14.18754028 -15.0328064 13.38238525 C-14.99806105 8.85198205 -14.48842221 5.91587131 -11.6484375 2.3359375 C-7.77236387 -0.24811159 -4.49872016 0.01218209 0 0 Z " fill="#2424C2" transform="translate(373.6484375,220.6640625)"/>
<path d="M0 0 C2.87806919 3.04767916 3.02201365 5.01024095 3.26171875 9.05859375 C3.06311692 12.14795547 2.10856717 13.90371437 0.12109375 16.24609375 C-3.38878558 18.5860133 -5.91868352 18.88048061 -10.06640625 19.55859375 C-19.47336917 21.29659298 -25.32663204 24.6746567 -31.40234375 32.08203125 C-36.27257952 39.21989003 -36.84677767 47.16827751 -35.515625 55.52734375 C-33.54592442 63.13815958 -28.18326338 69.36876673 -21.7109375 73.6953125 C-17.45469027 75.78079611 -13.30025424 76.55997165 -8.62890625 77.24609375 C-0.70348105 78.44752763 -0.70348105 78.44752763 2.12109375 82.24609375 C3.39785388 86.58870462 3.65617182 89.98866028 1.87109375 94.18359375 C-0.5591216 97.04777612 -2.2085012 98.16537324 -5.9609375 98.6171875 C-20.83546224 98.88196962 -32.84131538 94.57983825 -43.87890625 84.24609375 C-54.16693258 72.5413556 -58.40736192 60.24763943 -58.125 44.80078125 C-57.26465949 32.37364052 -52.2714371 19.73149888 -42.87890625 11.24609375 C-32.08627722 2.58534206 -13.74578344 -8.37429683 0 0 Z " fill="#2424C2" transform="translate(177.87890625,222.75390625)"/>
<path d="M0 0 C4.30505116 1.14352921 6.49397921 3.98405148 8.73681641 7.72949219 C9.98838823 10.07838049 11.16149628 12.45188253 12.3125 14.8515625 C12.71919922 15.67076172 13.12589844 16.48996094 13.54492188 17.33398438 C16.5 23.36830357 16.5 23.36830357 16.5 25.6640625 C17.16 25.6640625 17.82 25.6640625 18.5 25.6640625 C18.85771484 24.44976562 18.85771484 24.44976562 19.22265625 23.2109375 C20.77739399 18.8938064 22.78922187 14.96073826 24.9375 10.9140625 C25.53014648 9.76357422 25.53014648 9.76357422 26.13476562 8.58984375 C26.52212891 7.85636719 26.90949219 7.12289063 27.30859375 6.3671875 C27.83151001 5.37187012 27.83151001 5.37187012 28.36499023 4.35644531 C29.5 2.6640625 29.5 2.6640625 32.5 0.6640625 C37.43012739 -0.12977157 41.30794774 -0.05116885 45.625 2.5390625 C48.37544152 7.12313171 48.5852085 10.42481818 47.5 15.6640625 C46.31569634 18.38047683 44.86910403 20.91757609 43.37890625 23.4765625 C42.96019257 24.19784836 42.54147888 24.91913422 42.1100769 25.66227722 C41.67559235 26.40931412 41.24110779 27.15635101 40.79345703 27.92602539 C30.18530532 46.18714294 26.46602781 61.1089165 27.33032227 82.21679688 C27.36242294 83.0795372 27.39452362 83.94227753 27.42759705 84.8311615 C27.49970391 86.44391717 27.59996545 88.05576486 27.73390198 89.66456604 C27.96620191 93.74720803 27.72485212 95.37849329 25.15380859 98.64379883 C22.28864031 100.82496419 21.04773374 101.34449584 17.5 101.2890625 C16.2625 101.30839844 16.2625 101.30839844 15 101.328125 C11.29010436 100.34268397 9.86199951 98.66387562 7.5 95.6640625 C7.21968159 92.67215108 7.21539297 90.27361838 7.4609375 87.32421875 C7.53704322 85.62202402 7.60632336 83.91951388 7.66967773 82.21679688 C7.7246492 80.87427856 7.7246492 80.87427856 7.7807312 79.50463867 C8.4981015 58.36392861 3.4265215 43.77852006 -7.1100769 25.66227722 C-7.52879059 24.94099136 -7.94750427 24.21970551 -8.37890625 23.4765625 C-8.78319855 22.78230667 -9.18749084 22.08805084 -9.60403442 21.37275696 C-12.47536584 16.23590879 -14.10492738 11.57086495 -12.5 5.6640625 C-9.30874565 0.34530525 -5.76211233 0.09003301 0 0 Z " fill="#2424C2" transform="translate(424.5,340.3359375)"/>
<path d="M0 0 C1.63630371 -0.00717545 1.63630371 -0.00717545 3.30566406 -0.01449585 C5.60873865 -0.01789363 7.91186155 -0.00869993 10.21484375 0.01220703 C13.73807417 0.0389719 17.25811856 0.01245249 20.78125 -0.01953125 C23.02084036 -0.01622713 25.26042874 -0.00982087 27.5 0 C29.0782959 -0.01518173 29.0782959 -0.01518173 30.68847656 -0.03067017 C37.98394523 0.08612002 37.98394523 0.08612002 41.91162109 3.04931641 C43.90180869 5.87998163 44.42849626 7.24030213 44.375 10.6640625 C44.38789063 11.4890625 44.40078125 12.3140625 44.4140625 13.1640625 C43.43498947 16.8499845 41.70606606 18.2933318 38.75 20.6640625 C35.9112599 21.03177495 33.73179849 21.15037054 30.9375 20.9765625 C30.24462891 20.95400391 29.55175781 20.93144531 28.83789062 20.90820312 C27.14098427 20.84968911 25.44520139 20.7600173 23.75 20.6640625 C23.76665459 22.05681648 23.76665459 22.05681648 23.78364563 23.47770691 C23.88387166 32.23217449 23.95997723 40.98644913 24.00906086 49.74135876 C24.03514391 54.24229107 24.07051776 58.74274894 24.12719727 63.2434082 C24.18156406 67.58766142 24.21143027 71.93145859 24.22438622 76.27602577 C24.23361781 77.93266288 24.25164546 79.58927529 24.27865028 81.245718 C24.31500498 83.56824851 24.31994301 85.8889002 24.31762695 88.21166992 C24.34459152 89.23666344 24.34459152 89.23666344 24.37210083 90.28236389 C24.33100885 94.0962415 23.81151988 95.58844937 21.37077332 98.58833313 C18.5221325 100.84454025 17.32666734 101.34494793 13.75 101.2890625 C12.5125 101.30839844 12.5125 101.30839844 11.25 101.328125 C7.58109283 100.35357153 6.12889439 98.58792471 3.75 95.6640625 C3.27877317 92.96136942 3.11163785 90.90049884 3.18237305 88.21166992 C3.18164291 87.479422 3.18091278 86.74717407 3.18016052 85.99273682 C3.18363042 83.58423504 3.22245872 81.17769301 3.26171875 78.76953125 C3.27104911 77.09516964 3.27816417 75.42079434 3.28315735 73.74641418 C3.30220984 69.34841954 3.35129478 64.95125606 3.40667725 60.55358887 C3.45790795 56.06253299 3.4806795 51.57134225 3.50585938 47.08007812 C3.55941594 38.27435899 3.64470658 29.46931426 3.75 20.6640625 C2.72519531 20.72207031 1.70039063 20.78007812 0.64453125 20.83984375 C-0.71610011 20.88676207 -2.07678096 20.93226002 -3.4375 20.9765625 C-4.44780273 21.0394043 -4.44780273 21.0394043 -5.47851562 21.10351562 C-9.45102483 21.20040609 -11.06036409 20.8161483 -14.19677734 18.30078125 C-16.4215513 15.44375881 -16.93070968 14.22948218 -16.875 10.6640625 C-16.88789063 9.8390625 -16.90078125 9.0140625 -16.9140625 8.1640625 C-14.61326817 -0.49775146 -7.43719146 -0.07153883 0 0 Z " fill="#2424C2" transform="translate(188.25,340.3359375)"/>
<path d="M0 0 C5.57894737 3.15789474 5.57894737 3.15789474 7 6 C7.55512815 10.63213493 7.6364242 13.98172127 5.125 18 C1.85159987 21.08084718 -0.46126475 21.33387487 -4.9609375 21.29296875 C-8.13134567 20.83745033 -9.8192402 19.24684343 -12 17 C-13.73631636 13.52736727 -13.60190402 9.78806987 -13 6 C-9.08606917 1.05608737 -6.27104539 -0.60298513 0 0 Z " fill="#2424C2" transform="translate(13,293)"/>
</svg>
