<?xml version="1.0" encoding="UTF-8"?>
<svg version="1.1" xmlns="http://www.w3.org/2000/svg" width="512" height="512">
<path d="M0 0 C1.59443414 -0.00462073 3.18886401 -0.01098144 4.78328514 -0.01890898 C9.12156164 -0.03546473 13.459482 -0.02741931 17.79775906 -0.0149641 C22.49314614 -0.00585902 27.18847487 -0.01991023 31.8838501 -0.03088379 C41.06507742 -0.04861567 50.2461735 -0.04485286 59.42740583 -0.03323323 C66.89308208 -0.02417812 74.35872169 -0.02298387 81.82440186 -0.02732849 C82.8893281 -0.02794142 83.95425435 -0.02855436 85.05145109 -0.02918586 C87.21522412 -0.03046484 89.37899714 -0.03176169 91.54277015 -0.03307623 C111.80459524 -0.04446641 132.0663478 -0.03139286 152.328161 -0.00987476 C169.69162932 0.00799478 187.05499064 0.00489024 204.41845703 -0.0135498 C224.61068036 -0.03498413 244.8028402 -0.04336792 264.99507332 -0.03110075 C267.15062585 -0.02982663 269.3061784 -0.02856915 271.46173096 -0.02732849 C273.05234756 -0.02640284 273.05234756 -0.02640284 274.67509782 -0.02545848 C282.12673688 -0.02201327 289.57833547 -0.02781602 297.02996826 -0.0372467 C306.11829114 -0.04849657 315.20647593 -0.04536401 324.29478312 -0.02412373 C328.92658234 -0.01365343 333.55815181 -0.00942243 338.18994904 -0.02272034 C342.43886639 -0.03473398 346.68734336 -0.02793575 350.93622136 -0.00681013 C352.46428919 -0.00238173 353.99239506 -0.00452442 355.52043796 -0.01431328 C368.62567123 -0.09175596 381.06779542 1.98198065 392.83056641 8.07043457 C393.48927734 8.40631592 394.14798828 8.74219727 394.82666016 9.08825684 C401.79909411 12.83712243 407.18009143 17.84868504 412.64306641 23.50793457 C413.38041016 24.21434082 414.11775391 24.92074707 414.87744141 25.64855957 C419.17792711 30.01571947 422.11283884 34.78331869 424.89306641 40.19543457 C425.36921387 41.11135376 425.36921387 41.11135376 425.85498047 42.04577637 C433.21979009 57.20326705 433.2188963 71.67668161 433.16064453 88.1854248 C433.16607188 90.77396029 433.17319797 93.36249269 433.18188477 95.95101929 C433.19957647 102.2240659 433.19587191 108.49691997 433.1842342 114.76997381 C433.17516223 119.87345512 433.17399205 124.97688287 433.17832947 130.08036995 C433.1789424 130.80961298 433.17955533 131.538856 433.18018684 132.2901973 C433.18146588 133.77213487 433.18276273 135.25407242 433.1840772 136.73600996 C433.19545582 150.59937026 433.18241257 164.46262438 433.16087574 178.32596726 C433.14301098 190.19242162 433.14610898 202.05871937 433.16455078 213.9251709 C433.18601225 227.74089301 433.19435349 241.55652227 433.18210173 255.37225872 C433.18082768 256.84873361 433.17957019 258.32520851 433.17832947 259.80168343 C433.17771237 260.52793214 433.17709526 261.25418085 433.17645946 262.0024371 C433.17302206 267.09264022 433.17880002 272.18278391 433.18824768 277.27297783 C433.20071271 284.13910905 433.19169318 291.00494162 433.16867065 297.87104416 C433.16340882 300.38195242 433.16485369 302.89288568 433.17372131 305.4037838 C433.2253437 321.513587 432.63938965 336.09193952 425.08056641 350.69543457 C424.74468506 351.35414551 424.40880371 352.01285645 424.06274414 352.69152832 C420.31387855 359.66396228 415.30231593 365.04495959 409.64306641 370.50793457 C408.93666016 371.24527832 408.23025391 371.98262207 407.50244141 372.74230957 C403.1547778 377.02359664 398.39965966 379.97473199 393.01806641 382.75793457 C392.11471558 383.23408203 392.11471558 383.23408203 391.19311523 383.71984863 C379.02154204 389.66421433 366.63819496 391.10140437 353.28613281 391.01586914 C351.69169867 391.02048987 350.0972688 391.02685058 348.50284767 391.03477812 C344.16457118 391.05133387 339.82665081 391.04328845 335.48837376 391.03083324 C330.79298668 391.02172816 326.09765794 391.03577937 321.40228271 391.04675293 C312.2210554 391.06448482 303.03995931 391.06072201 293.85872698 391.04910237 C286.39305074 391.04004727 278.92741112 391.03885301 271.46173096 391.04319763 C270.39680471 391.04381056 269.33187846 391.0444235 268.23468173 391.045055 C266.07090869 391.04633398 263.90713567 391.04763083 261.74336267 391.04894537 C241.48153757 391.06033555 221.21978501 391.047262 200.95797181 391.0257439 C183.59450349 391.00787436 166.23114217 391.0109789 148.86767578 391.02941895 C128.67545245 391.05085327 108.48329261 391.05923706 88.29105949 391.04696989 C86.13550696 391.04569577 83.97995441 391.04443829 81.82440186 391.04319763 C80.23378526 391.04227198 80.23378526 391.04227198 78.61103499 391.04132763 C71.15939593 391.03788241 63.70779734 391.04368516 56.25616455 391.05311584 C47.16784167 391.06436571 38.07965688 391.06123315 28.9913497 391.03999287 C24.35955047 391.02952257 19.727981 391.02529157 15.09618378 391.03858948 C10.84726643 391.05060312 6.59878946 391.04380489 2.34991145 391.02267927 C0.82184362 391.01825087 -0.70626225 391.02039356 -2.23430514 391.03018242 C-15.33953842 391.1076251 -27.7816626 389.0338885 -39.54443359 382.94543457 C-40.20314453 382.60955322 -40.86185547 382.27367187 -41.54052734 381.9276123 C-48.5129613 378.17874671 -53.89395862 373.1671841 -59.35693359 367.50793457 C-60.09427734 366.80152832 -60.83162109 366.09512207 -61.59130859 365.36730957 C-65.8917943 361.00014967 -68.82670602 356.23255045 -71.60693359 350.82043457 C-71.92436523 350.20982178 -72.24179688 349.59920898 -72.56884766 348.97009277 C-73.60016386 346.84754425 -74.48208065 344.70010678 -75.35693359 342.50793457 C-75.69960014 341.64980164 -76.04226669 340.7916687 -76.39531708 339.90753174 C-80.53361573 327.74591718 -79.91912328 315.42326515 -79.87451172 302.72277832 C-79.87993899 300.12276824 -79.88706503 297.52276124 -79.89575195 294.92276001 C-79.91344379 288.6219752 -79.90973922 282.32138207 -79.89810139 276.02059007 C-79.88903028 270.8951704 -79.88785887 265.76980407 -79.89219666 260.64437866 C-79.89280959 259.91207155 -79.89342252 259.17976444 -79.89405403 258.42526621 C-79.89533306 256.93712591 -79.89662991 255.44898562 -79.89794439 253.96084535 C-79.90932283 240.03981147 -79.89627961 226.11888333 -79.87474293 212.1978668 C-79.85687441 200.27935992 -79.8599793 188.36100895 -79.87841797 176.44250488 C-79.89987323 162.56782883 -79.90822445 148.69324521 -79.89596891 134.81855488 C-79.89469485 133.33620009 -79.89343737 131.85384529 -79.89219666 130.37149048 C-79.89157955 129.64233694 -79.89096245 128.91318341 -79.89032665 128.16193432 C-79.88688768 123.04871917 -79.89267056 117.93556316 -79.90211487 112.82235718 C-79.91457127 105.92750229 -79.90557431 99.03294501 -79.88253784 92.13811874 C-79.87727212 89.61550252 -79.87872763 87.09286143 -79.8875885 84.57025528 C-79.96552474 60.11858969 -79.96552474 60.11858969 -75.35693359 48.50793457 C-75.04289833 47.69606186 -74.72886307 46.88418915 -74.40531158 46.04771423 C-73.61949162 44.10335964 -72.74753359 42.25043764 -71.79443359 40.38293457 C-71.29061157 39.38810059 -71.29061157 39.38810059 -70.77661133 38.37316895 C-67.03526803 31.3675268 -62.0342691 25.98836827 -56.35693359 20.50793457 C-55.65052734 19.77059082 -54.94412109 19.03324707 -54.21630859 18.27355957 C-49.86864499 13.99227251 -45.11352685 11.04113715 -39.73193359 8.25793457 C-39.12969971 7.94050293 -38.52746582 7.62307129 -37.90698242 7.29602051 C-25.73540923 1.35165481 -13.35206215 -0.08553523 0 0 Z M-39.35693359 47.50793457 C-48.09001543 59.25051395 -49.51514524 71.39594325 -49.49064636 85.61407471 C-49.49291192 86.59264474 -49.49517748 87.57121478 -49.49751168 88.57943845 C-49.5038099 91.8378426 -49.50302502 95.09620471 -49.50219727 98.35461426 C-49.50519137 100.69935154 -49.50859447 103.04408832 -49.51237488 105.38882446 C-49.52119355 111.74433623 -49.5235521 118.09983453 -49.52419066 124.45535183 C-49.52502196 129.09779791 -49.52792366 133.74024101 -49.53102714 138.38268603 C-49.53932424 150.87687557 -49.54307036 163.371058 -49.54235741 175.8652502 C-49.54231745 176.5736251 -49.5422775 177.28200001 -49.54223633 178.01184082 C-49.54219545 178.72108882 -49.54215457 179.43033681 -49.54211245 180.16107717 C-49.5417062 191.64922079 -49.55127238 203.13733159 -49.56537469 214.62546572 C-49.57976792 226.44461545 -49.58664326 238.26374921 -49.58578092 250.08290792 C-49.58544996 256.70912094 -49.5883492 263.33530373 -49.59895897 269.9615097 C-49.60866986 276.19630598 -49.60869862 282.43102981 -49.60144234 288.6658287 C-49.60040021 290.94698315 -49.60273715 293.22814217 -49.6088028 295.50928879 C-49.65885314 315.64486564 -49.55294701 332.87309169 -34.77880859 348.31652832 C-21.6459907 360.19961032 -6.47423789 360.66174634 10.38079834 360.64164734 C11.87247915 360.64351777 13.36415947 360.64581939 14.85583901 360.64851266 C18.93778225 360.65460837 23.01970493 360.6544997 27.10165167 360.65331829 C31.51078447 360.65311372 35.91991077 360.65863841 40.32904053 360.66337585 C48.96092893 360.67167069 57.59281051 360.67443017 66.22470257 360.67498823 C73.24335179 360.67546394 80.26199877 360.67752141 87.28064728 360.68068886 C107.19380675 360.68949217 127.10696083 360.69410873 147.02012226 360.69335838 C148.09291063 360.69331843 149.16569899 360.69327847 150.27099609 360.6932373 C151.34509909 360.69319642 152.41920209 360.69315554 153.52585366 360.69311342 C170.93086419 360.69270702 188.33585307 360.70227591 205.74085733 360.71637567 C223.62591284 360.73074963 241.51095779 360.7376453 259.39601922 360.7367819 C269.43160176 360.73645028 279.46716162 360.7391817 289.50273895 360.74995995 C298.04737994 360.75907835 306.59198795 360.76122918 315.1366317 360.75445052 C319.49265101 360.75119212 323.84860711 360.75110402 328.20462036 360.75980377 C332.19942636 360.76769979 336.19411933 360.76620589 340.18892267 360.75751964 C341.62696478 360.75599146 343.06501544 360.75777483 344.50304744 360.76337972 C362.47129839 360.82872294 377.04272059 358.75762334 390.45166016 345.92980957 C401.11468545 334.14536094 402.80305436 320.65082283 402.77677917 305.40179443 C402.77904473 304.4232244 402.78131029 303.44465436 402.7836445 302.43643069 C402.78994271 299.17802654 402.78915783 295.91966443 402.78833008 292.66125488 C402.79132418 290.31651761 402.79472729 287.97178082 402.79850769 285.62704468 C402.80732637 279.27153291 402.80968491 272.91603461 402.81032348 266.56051731 C402.81115477 261.91807123 402.81405647 257.27562813 402.81715995 252.63318311 C402.82545705 240.13899357 402.82920318 227.64481114 402.82849022 215.15061894 C402.82845026 214.44224404 402.82841031 213.73386913 402.82836914 213.00402832 C402.82832826 212.29478032 402.82828738 211.58553233 402.82824526 210.85479197 C402.82783901 199.36664835 402.83740519 187.87853755 402.85150751 176.39040342 C402.86590074 164.57125369 402.87277607 152.75211993 402.87191373 140.93296123 C402.87158278 134.3067482 402.87448201 127.68056541 402.88509178 121.05435944 C402.89480268 114.81956316 402.89483143 108.58483933 402.88757515 102.35004044 C402.88653303 100.06888599 402.88886996 97.78772697 402.89493561 95.50658035 C402.94498596 75.3710035 402.83907982 58.14277745 388.06494141 42.69934082 C374.93212351 30.81625882 359.7603707 30.3541228 342.90533447 30.3742218 C341.41365367 30.37235137 339.92197335 30.37004975 338.4302938 30.36735648 C334.34835057 30.36126077 330.26642788 30.36136944 326.18448114 30.36255085 C321.77534834 30.36275543 317.36622204 30.35723073 312.95709229 30.35249329 C304.32520388 30.34419846 295.6933223 30.34143897 287.06143025 30.34088091 C280.04278102 30.3404052 273.02413405 30.33834774 266.00548553 30.33518028 C246.09232607 30.32637697 226.17917198 30.32176041 206.26601055 30.32251076 C204.656828 30.32257069 204.656828 30.32257069 203.01513672 30.32263184 C201.94103372 30.32267272 200.86693072 30.3227136 199.76027915 30.32275572 C182.35526863 30.32316212 164.95027974 30.31359323 147.54527548 30.29949347 C129.66021998 30.28511951 111.77517502 30.27822384 93.89011359 30.27908725 C83.85453105 30.27941886 73.81897119 30.27668744 63.78339386 30.26590919 C55.23875287 30.25679079 46.69414487 30.25463996 38.14950112 30.26141862 C33.7934818 30.26467702 29.4375257 30.26476512 25.08151245 30.25606537 C21.08670645 30.24816935 17.09201348 30.24966325 13.09721014 30.2583495 C11.65916804 30.25987768 10.22111737 30.25809431 8.78308538 30.25248943 C-10.33370406 30.18296943 -25.99983201 32.74607542 -39.35693359 47.50793457 Z " fill="#2424C2" transform="translate(79.35693359375,60.4920654296875)"/>
<path d="M0 0 C6.12183127 2.74254712 11.70125568 6.5524228 17.29394531 10.22509766 C19.95834907 11.97268114 22.64208384 13.68494841 25.3359375 15.38671875 C28.99948002 17.70233532 32.65518584 20.02950444 36.3046875 22.3671875 C42.13719211 26.09636402 48.00185642 29.77274615 53.875 33.4375 C54.87241211 34.05987549 55.86982422 34.68225098 56.89746094 35.32348633 C58.92075337 36.58551906 60.94419116 37.84731879 62.96777344 39.10888672 C68.9727177 42.8539993 74.97283568 46.60684156 80.97314453 50.359375 C86.11932254 53.57710649 91.26826065 56.79028374 96.421875 59.99609375 C101.44720661 63.12342789 106.46582849 66.26114867 111.47607422 69.41259766 C113.03612745 70.39378029 114.59740464 71.37302351 116.16064453 72.34912109 C117.88524874 73.42948422 119.59951885 74.5263009 121.3125 75.625 C122.17488281 76.17414063 123.03726563 76.72328125 123.92578125 77.2890625 C127.27173634 80.04900286 128.79187609 82.60688227 129.43359375 86.90234375 C129.43488281 87.90394531 129.43617188 88.90554687 129.4375 89.9375 C129.45683594 90.93652344 129.47617187 91.93554688 129.49609375 92.96484375 C128.75360746 97.50745675 126.92409884 100.48705902 123.27709961 103.35473633 C121.13972787 104.78904953 118.9620307 106.12124466 116.75 107.4375 C115.02985244 108.49203178 113.30980506 109.54672698 111.58984375 110.6015625 C110.22448486 111.42962402 110.22448486 111.42962402 108.83154297 112.27441406 C103.96324577 115.24122942 99.14205862 118.2831999 94.3125 121.3125 C92.26725527 122.59036917 90.22167921 123.86770817 88.17578125 125.14453125 C82.11575044 128.92739005 76.0576868 132.71338911 70 136.5 C68.00000915 137.75001464 66.00000914 139.00001462 64 140.25 C63.01 140.86875 62.02 141.4875 61 142.125 C58 144 55 145.875 52 147.75 C51.00887207 148.3694751 50.01774414 148.9889502 48.99658203 149.62719727 C47.00804849 150.86999023 45.01944239 152.1126671 43.03076172 153.35522461 C37.85470635 156.58951614 32.6801434 159.82616129 27.5078125 163.06640625 C26.43917969 163.73542969 25.37054688 164.40445313 24.26953125 165.09375 C22.24301583 166.36252487 20.21694003 167.63200232 18.19140625 168.90234375 C16.35179563 170.05369949 14.50943881 171.2006817 12.6640625 172.34277344 C10.86759145 173.4602996 9.08122239 174.59420943 7.3046875 175.74316406 C0.64723757 179.95639304 -4.09285752 181.33497211 -12 180 C-16.60550436 177.8184453 -18.76632545 175.51804487 -21 171 C-21.38031673 167.87150669 -21.38031673 167.87150669 -21.38768005 164.28895569 C-21.39306559 163.62738148 -21.39845113 162.96580727 -21.40399987 162.28418535 C-21.41826924 160.07476388 -21.41117864 157.86594242 -21.40405273 155.65649414 C-21.40975687 154.06944803 -21.41672129 152.48240602 -21.42485046 150.89537048 C-21.44279243 146.58955673 -21.44161155 142.28394665 -21.43590808 137.97810674 C-21.43281769 134.3821365 -21.43890702 130.78620546 -21.44494683 127.1902408 C-21.45899388 118.70630249 -21.4574293 110.22246487 -21.44604492 101.73852539 C-21.43456347 92.98894733 -21.44863936 84.23967578 -21.4754414 75.49013811 C-21.49759967 67.97490947 -21.50423549 60.45977702 -21.49836498 52.94451803 C-21.4949945 48.45736854 -21.49741647 43.97041553 -21.51461601 39.48329353 C-21.53008514 35.26344273 -21.5261302 31.0440459 -21.50731087 26.82421303 C-21.50362486 25.27706234 -21.50673386 23.72987803 -21.51719666 22.18275833 C-21.53040869 20.067326 -21.51885992 17.95339619 -21.50120544 15.83802795 C-21.50099616 14.6554091 -21.50078688 13.47279024 -21.50057125 12.25433445 C-20.74442452 7.33844213 -18.52433607 4.13774683 -14.56640625 1.18359375 C-9.49044306 -1.15737558 -5.45460017 -1.23683201 0 0 Z M9 43 C9 74.02 9 105.04 9 137 C15.74084993 133.32317276 22.26002401 129.69793547 28.6875 125.5625 C30.33947141 124.50983212 31.99183449 123.45777871 33.64453125 122.40625 C34.51029785 121.85453125 35.37606445 121.3028125 36.26806641 120.734375 C41.12190406 117.6529038 45.9988877 114.60855264 50.875 111.5625 C51.87362061 110.93714355 52.87224121 110.31178711 53.90112305 109.66748047 C58.9813003 106.49037324 64.07458728 103.33795085 69.1953125 100.2265625 C70.17258301 99.63029053 71.14985352 99.03401855 72.15673828 98.41967773 C74.0185549 97.28541799 75.88399844 96.15708526 77.75341797 95.03540039 C78.57729004 94.53258545 79.40116211 94.02977051 80.25 93.51171875 C80.97703125 93.07303467 81.7040625 92.63435059 82.453125 92.18237305 C83.21882813 91.59709839 83.21882813 91.59709839 84 91 C84 90.34 84 89.68 84 89 C82.16121825 87.60979327 82.16121825 87.60979327 79.7421875 86.234375 C78.81801025 85.68144775 77.89383301 85.12852051 76.94165039 84.55883789 C75.92965576 83.96192139 74.91766113 83.36500488 73.875 82.75 C71.74496003 81.47454769 69.61608056 80.1971556 67.48828125 78.91796875 C66.40111816 78.26489746 65.31395508 77.61182617 64.19384766 76.93896484 C59.43740848 74.05136051 54.74686161 71.06517493 50.0625 68.0625 C42.06195074 62.9465471 34.04454367 57.8590619 26 52.8125 C24.99074463 52.17642822 23.98148926 51.54035645 22.94165039 50.88500977 C21.99153076 50.29002686 21.04141113 49.69504395 20.0625 49.08203125 C19.22847656 48.55843018 18.39445312 48.0348291 17.53515625 47.49536133 C14.76553008 45.86169797 11.87606468 44.43803234 9 43 Z " fill="#2424C2" transform="translate(217,166)"/>
</svg>
