<?xml version="1.0" encoding="UTF-8"?>
<svg version="1.1" xmlns="http://www.w3.org/2000/svg" width="512" height="512">
<path d="M0 0 C1.05700712 -0.00644889 2.11401423 -0.01289778 3.20305187 -0.0195421 C4.9356197 -0.01489629 4.9356197 -0.01489629 6.7031889 -0.01015663 C7.93504931 -0.01468774 9.16690972 -0.01921886 10.43609923 -0.02388728 C13.85270262 -0.03436043 17.26909556 -0.03585663 20.68570006 -0.03349853 C24.37156821 -0.0330904 28.05740496 -0.04412909 31.74325848 -0.05361366 C38.9636347 -0.07022567 46.18397828 -0.0757233 53.40437201 -0.07683842 C59.27375458 -0.07778881 65.14312637 -0.08189867 71.01250553 -0.08823967 C87.65437853 -0.10585275 104.29622574 -0.11507845 120.93810812 -0.11357872 C121.83525198 -0.11349881 122.73239585 -0.1134189 123.65672588 -0.11333656 C125.00408539 -0.11321392 125.00408539 -0.11321392 126.37866428 -0.1130888 C140.93560393 -0.11227592 155.4924401 -0.13141401 170.04934982 -0.1596133 C184.99735816 -0.18834164 199.94531604 -0.20215361 214.89335269 -0.20042574 C223.28510577 -0.19976182 231.67675037 -0.20525524 240.06847858 -0.22678185 C247.21353167 -0.24499302 254.35842711 -0.24934157 261.50349335 -0.235763 C265.14808412 -0.22923291 268.79237246 -0.22911723 272.43693447 -0.2464695 C276.39049069 -0.2650991 280.34360532 -0.25264658 284.29718304 -0.23720741 C286.01971262 -0.2526381 286.01971262 -0.2526381 287.77704078 -0.26838052 C295.54620088 -0.20127353 300.92761416 0.95968567 306.93284893 6.22211266 C307.47167706 6.87308922 308.01050518 7.52406578 308.56566143 8.19476891 C309.11995831 8.84316734 309.67425518 9.49156578 310.24534893 10.15961266 C313.19465739 14.44009547 313.94022087 18.13316985 313.93117046 23.2873745 C313.93529446 25.10252052 313.93529446 25.10252052 313.93950176 26.95433617 C313.93231121 28.2735154 313.92512066 29.59269463 313.91771221 30.95184898 C313.91714779 32.36143549 313.91746527 33.77102258 313.91859722 35.18060875 C313.91917052 39.00049047 313.90741995 42.82024632 313.89344931 46.64009881 C313.88093812 50.63460859 313.87977114 54.62912133 313.87739849 58.62364769 C313.87118487 66.18481799 313.85477563 73.74593039 313.83469951 81.3070752 C313.81233686 89.91645088 313.80134616 98.52582935 313.79130864 107.13522685 C313.7704093 124.84260702 313.7352356 142.5499333 313.69066143 160.25726891 C314.61250225 160.55133629 315.53434307 160.84540367 316.48411846 161.14838219 C320.12474829 162.40738483 323.2900503 164.14266113 326.56566143 166.13226891 C327.21132061 166.52374107 327.85697979 166.91521324 328.5222044 167.3185482 C368.59206574 192.11979515 395.11042617 229.80530287 406.69066143 275.25726891 C406.87145245 275.96383629 407.05224346 276.67040367 407.23851299 277.39838219 C412.91803104 301.10444212 411.77465483 329.82114644 405.69066143 353.25726891 C405.50874249 354.00234703 405.32682354 354.74742516 405.1393919 355.51508141 C394.65785815 397.92829392 365.72179093 434.8565956 328.62572002 457.28168297 C305.79563834 470.73144346 279.19381508 480.21648562 252.46800518 480.49555016 C251.69361599 480.50529869 250.9192268 480.51504723 250.12137127 480.52509117 C233.29739512 480.69329414 217.06042321 480.65169149 200.69066143 476.25726891 C199.97410381 476.07003258 199.2575462 475.88279625 198.51927471 475.68988609 C193.82575572 474.42972032 189.25096363 472.93369883 184.69066143 471.25726891 C184.01760967 471.01138023 183.34455791 470.76549156 182.65111065 470.51215172 C166.36014794 464.44349209 151.16147275 456.2871839 137.69066143 445.25726891 C136.88870342 444.60540611 136.88870342 444.60540611 136.07054424 443.94037437 C109.20516476 422.01978213 86.19293839 390.80722858 78.69066143 356.25726891 C78.69066143 354.93726891 78.69066143 353.61726891 78.69066143 352.25726891 C78.01774311 352.26095608 77.34482479 352.26464325 76.65151501 352.26844215 C60.25876919 352.35687704 43.86609919 352.42301917 27.47317028 352.46451759 C19.54558004 352.48512065 11.61814929 352.51319785 3.69066143 352.55902672 C-3.22098701 352.59896388 -10.13251991 352.62471812 -17.04428053 352.63362288 C-20.70221133 352.63882607 -24.35981167 352.6510077 -28.0176363 352.68018913 C-32.10655436 352.71254351 -36.1949022 352.71322393 -40.28394794 352.71137047 C-42.09225086 352.73294212 -42.09225086 352.73294212 -43.93708515 352.75494957 C-51.91931776 352.71581887 -57.37938064 351.70111706 -63.55152607 346.29242516 C-64.09035419 345.64144859 -64.62918232 344.99047203 -65.18433857 344.31976891 C-65.73863544 343.67137047 -66.29293232 343.02297203 -66.86402607 342.35492516 C-70.71173506 336.77054751 -70.59776323 331.63196917 -70.57676411 325.06700706 C-70.58129522 324.03115717 -70.58582633 322.99530727 -70.59049475 321.92806798 C-70.60316967 318.4520631 -70.60151637 314.97621428 -70.59986591 311.50018883 C-70.60584923 309.00999817 -70.61265432 306.51980938 -70.62022114 304.02962303 C-70.63607064 297.9642828 -70.64233041 291.89900409 -70.64344589 285.83364888 C-70.64439669 280.90248068 -70.64850859 275.97132528 -70.65484715 271.04016113 C-70.67245812 257.05448846 -70.68168628 243.06884647 -70.6801862 229.08316263 C-70.68010628 228.32939456 -70.68002637 227.57562648 -70.67994404 226.79901695 C-70.67986228 226.04432679 -70.67978052 225.28963663 -70.67969628 224.51207707 C-70.67888349 212.28307847 -70.69801964 200.05420307 -70.72622077 187.8252401 C-70.75495963 175.26381655 -70.76876051 162.70245306 -70.76703322 150.1409958 C-70.76636965 143.09062676 -70.77184747 136.04038686 -70.79338932 128.99004745 C-70.8135209 122.35884293 -70.81291716 115.72786445 -70.79835606 109.0966301 C-70.79626301 106.66340805 -70.80099821 104.23016906 -70.81307697 101.79697609 C-70.82850455 98.47382326 -70.81923669 95.15161408 -70.80381489 91.82848167 C-70.81410201 90.86689414 -70.82438914 89.9053066 -70.834988 88.91458005 C-70.76162024 81.75434641 -69.10391525 76.44630869 -64.34449482 71.01508141 C-63.69351826 70.47625328 -63.04254169 69.93742516 -62.37183857 69.38226891 C-61.72344013 68.82797203 -61.07504169 68.27367516 -60.40699482 67.70258141 C-55.69293731 64.45453433 -51.71267606 64.01526613 -46.03980732 64.06195641 C-45.35880466 64.0647863 -44.67780201 64.0676162 -43.97616291 64.07053185 C-41.81620402 64.08166366 -39.65667063 64.10675434 -37.49683857 64.13226891 C-36.02614146 64.14230779 -34.55543781 64.15143205 -33.08472919 64.15961266 C-29.49279571 64.18157977 -25.90110872 64.21606071 -22.30933857 64.25726891 C-22.31822102 63.68621422 -22.32710346 63.11515953 -22.33625507 62.52680016 C-22.42508897 56.55668764 -22.48522163 50.58676441 -22.52906513 44.61615562 C-22.54911903 42.39114308 -22.57636922 40.16618284 -22.61109638 37.94135094 C-22.65988791 34.73402526 -22.68237019 31.52739939 -22.69996357 28.31976891 C-22.72060871 27.33299156 -22.74125385 26.34621422 -22.7625246 25.32953453 C-22.76489467 17.95262485 -21.25107418 12.61423956 -16.34449482 7.01508141 C-15.69351826 6.47625328 -15.04254169 5.93742516 -14.37183857 5.38226891 C-13.72344013 4.82797203 -13.07504169 4.27367516 -12.40699482 3.70258141 C-8.39650113 0.93929898 -4.83754914 0.00747982 0 0 Z M-4.30933857 19.25726891 C-9.88569808 33.19816769 -6.30933857 49.2424614 -6.30933857 64.25726891 C94.01066143 64.25726891 194.33066143 64.25726891 297.69066143 64.25726891 C299.62658279 40.4461579 299.62658279 40.4461579 294.69066143 18.25726891 C291.32967748 16.3290581 288.42492067 16.00661087 284.59437943 16.00279331 C283.58490645 15.99696112 282.57543347 15.99112893 281.53537041 15.98512 C279.88246613 15.99078898 279.88246613 15.99078898 278.19616985 15.99657249 C276.43201714 15.99083417 276.43201714 15.99083417 274.63222498 15.98497993 C271.37140554 15.97644608 268.11072987 15.97688382 264.84990656 15.98116052 C261.33177065 15.98362623 257.81366129 15.97461554 254.29553509 15.96712303 C247.40469273 15.95436985 240.51388934 15.9525831 233.62303717 15.95492329 C228.02251649 15.95670586 222.42200764 15.95495814 216.82148838 15.95069885 C216.02459413 15.95010366 215.22769988 15.94950847 214.40665732 15.94889525 C212.78780337 15.94768351 211.16894943 15.94646937 209.55009549 15.94525287 C194.36656515 15.93437503 179.18305701 15.93654103 163.99952542 15.94263772 C150.10730334 15.94780757 136.21515137 15.93655008 122.32294316 15.9175395 C108.05973273 15.89817078 93.79655548 15.88990337 79.53333181 15.89366275 C71.52507816 15.89557621 63.51688418 15.89307318 55.50864124 15.87894821 C48.69146373 15.86704577 41.87438264 15.86561674 35.05720384 15.87773838 C31.57898041 15.88363499 28.10093344 15.88470506 24.62272167 15.87273598 C20.85236179 15.86232683 17.08247904 15.87032285 13.31213665 15.8830471 C12.21243119 15.87567282 11.11272573 15.86829853 9.97969586 15.86070079 C2.38385397 15.89798498 2.38385397 15.89798498 -4.30933857 19.25726891 Z M-52.30933857 83.25726891 C-57.88569808 97.19816769 -54.30933857 113.2424614 -54.30933857 128.25726891 C22.25066143 128.25726891 98.81066143 128.25726891 177.69066143 128.25726891 C177.69066143 133.53726891 177.69066143 138.81726891 177.69066143 144.25726891 C101.13066143 144.25726891 24.57066143 144.25726891 -54.30933857 144.25726891 C-54.37121357 174.49351891 -54.43308857 204.72976891 -54.49683857 235.88226891 C-54.52415058 245.43373863 -54.55146259 254.98520836 -54.57960224 264.82611656 C-54.58963479 273.37889509 -54.58963479 273.37889509 -54.59566975 281.93167686 C-54.59846766 285.74479966 -54.60972187 289.55779749 -54.62606525 293.37088585 C-54.64663374 298.23411626 -54.65281367 303.0971648 -54.6485554 307.96043468 C-54.6494459 309.74561923 -54.65540005 311.53081011 -54.66698396 313.31595731 C-54.68190717 315.72766502 -54.67830877 318.13866629 -54.67010212 320.55039024 C-54.67884011 321.24864607 -54.68757811 321.94690189 -54.69658089 322.66631699 C-54.65472992 327.24263153 -53.88465399 330.45416027 -51.30933857 334.25726891 C-47.91639829 336.21014443 -44.9833322 336.50581303 -41.11443806 336.49777794 C-40.0894521 336.50052727 -39.06446613 336.5032766 -38.00841999 336.50610924 C-36.89495701 336.49891869 -35.78149403 336.49172813 -34.63428974 336.48431969 C-33.45337757 336.48461174 -32.2724654 336.48490379 -31.05576801 336.4852047 C-27.82675854 336.48405194 -24.59792349 336.4740368 -21.3689487 336.46005678 C-17.99103891 336.4475354 -14.61312553 336.44637781 -11.23519611 336.44400597 C-4.84274761 336.43779533 1.5496323 336.42139017 7.94205064 336.40130699 C15.22134127 336.37893501 22.50063522 336.3679513 29.77995169 336.35791612 C44.75022646 336.33702356 59.72043708 336.3018557 74.69066143 336.25726891 C74.6818243 334.99114769 74.67298717 333.72502647 74.66388226 332.42053795 C74.63304829 327.66665265 74.61385979 322.91277596 74.59796429 318.1588192 C74.58954372 316.11184763 74.57807826 314.06488601 74.56335735 312.01795006 C74.46280632 297.66390677 74.7864945 284.17024226 78.69066143 270.25726891 C78.87789776 269.54941246 79.06513409 268.84155602 79.25804424 268.11224937 C80.51901261 263.40920761 82.01096076 258.82646834 83.69066143 254.25726891 C83.9365501 253.58421715 84.18243877 252.91116539 84.43577862 252.21771812 C90.49913411 235.94099407 98.64628858 220.70805796 109.69066143 207.25726891 C110.14167217 206.7008773 110.59268291 206.1444857 111.05736065 205.57123375 C138.56609563 171.78383727 178.32770213 150.21849435 221.69066143 145.25726891 C226.6258901 144.92161533 231.55911914 144.75723575 236.50316143 144.63226891 C238.8556347 144.56592473 241.2080914 144.49899146 243.56053448 144.43158531 C245.60391013 144.37347984 247.64728578 144.31537437 249.69066143 144.25726891 C249.76679316 136.39193491 249.81929591 128.52669614 249.85545635 120.6610775 C249.86883694 117.9857717 249.89099528 115.31094741 249.91697979 112.63568687 C249.95341227 108.78813139 249.97039971 104.94090305 249.98363018 101.09320641 C249.99911404 99.89924248 250.01459789 98.70527855 250.03055096 97.4751339 C250.16586197 89.37426728 250.16586197 89.37426728 246.69066143 82.25726891 C243.22934907 80.55308577 240.43040664 80.00661634 236.59437943 80.00279331 C235.58490645 79.99696112 234.57543347 79.99112893 233.53537041 79.98512 C231.88246613 79.99078898 231.88246613 79.99078898 230.19616985 79.99657249 C228.43201714 79.99083417 228.43201714 79.99083417 226.63222498 79.98497993 C223.37140554 79.97644608 220.11072987 79.97688382 216.84990656 79.98116052 C213.33177065 79.98362623 209.81366129 79.97461554 206.29553509 79.96712303 C199.40469273 79.95436985 192.51388934 79.9525831 185.62303717 79.95492329 C180.02251649 79.95670586 174.42200764 79.95495814 168.82148838 79.95069885 C168.02459413 79.95010366 167.22769988 79.94950847 166.40665732 79.94889525 C164.78780337 79.94768351 163.16894943 79.94646937 161.55009549 79.94525287 C146.36656515 79.93437503 131.18305701 79.93654103 115.99952542 79.94263772 C102.10730334 79.94780757 88.21515137 79.93655008 74.32294316 79.9175395 C60.05973273 79.89817078 45.79655548 79.88990337 31.53333181 79.89366275 C23.52507816 79.89557621 15.51688418 79.89307318 7.50864124 79.87894821 C0.69146373 79.86704577 -6.12561736 79.86561674 -12.94279616 79.87773838 C-16.42101959 79.88363499 -19.89906656 79.88470506 -23.37727833 79.87273598 C-27.14763821 79.86232683 -30.91752096 79.87032285 -34.68786335 79.8830471 C-35.78756881 79.87567282 -36.88727427 79.86829853 -38.02030414 79.86070079 C-45.61614603 79.89798498 -45.61614603 79.89798498 -52.30933857 83.25726891 Z M264.69066143 80.25726891 C265.02066143 101.70726891 265.35066143 123.15726891 265.69066143 145.25726891 C269.65627683 146.39030188 273.57998751 147.51133997 277.57347393 148.51117516 C278.85931377 148.83311852 278.85931377 148.83311852 280.17113018 149.16156578 C281.04382549 149.37877281 281.91652081 149.59597984 282.81566143 149.81976891 C283.69609112 150.04084312 284.57652081 150.26191734 285.48363018 150.48969078 C286.33827862 150.70303062 287.19292706 150.91637047 288.07347393 151.13617516 C288.84062725 151.3276815 289.60778057 151.51918785 290.39818096 151.71649742 C292.81630567 152.28690703 295.25441782 152.77002018 297.69066143 153.25726891 C297.69066143 129.16726891 297.69066143 105.07726891 297.69066143 80.25726891 C286.80066143 80.25726891 275.91066143 80.25726891 264.69066143 80.25726891 Z M218.69066143 175.25726891 C210.76305549 186.28449735 202.81019156 200.93045268 199.69066143 214.25726891 C199.98332338 215.60011583 200.31158058 216.9362138 200.69066143 218.25726891 C203.37726926 218.90701096 206.06484817 219.55215308 208.75316143 220.19476891 C209.5053294 220.37717125 210.25749737 220.55957359 211.03245831 220.74750328 C212.1491087 221.01337242 212.1491087 221.01337242 213.28831768 221.28461266 C213.963867 221.44695396 214.63941631 221.60929527 215.33543682 221.77655602 C223.79414735 223.50302031 232.22478926 223.53940264 240.81566143 223.56976891 C241.94817333 223.57469353 241.94817333 223.57469353 243.10356426 223.57971764 C264.13360038 223.84386801 264.13360038 223.84386801 283.69066143 217.25726891 C283.07798148 211.74314939 281.17578695 207.11538277 279.00316143 202.06976891 C278.6423045 201.22623863 278.28144756 200.38270836 277.90965557 199.51361656 C271.94253919 185.74945048 263.70954407 169.18855967 249.70238018 161.91742516 C236.29360607 157.51726433 226.88273582 165.58879195 218.69066143 175.25726891 Z M277.69066143 165.25726891 C278.06835674 165.78449547 278.44605206 166.31172203 278.83519268 166.85492516 C283.33395628 173.50298096 286.89896866 180.47099649 290.37816143 187.69476891 C291.07292583 189.12284874 291.07292583 189.12284874 291.78172588 190.57977867 C294.97937452 197.3159362 297.4820397 204.1378132 299.69066143 211.25726891 C302.91967482 210.70259818 305.60609938 209.98533726 308.51097393 208.47211266 C309.20650372 208.10980553 309.9020335 207.7474984 310.61863995 207.37421227 C311.34365704 206.98499596 312.06867413 206.59577965 312.81566143 206.19476891 C313.56323711 205.79717369 314.3108128 205.39957848 315.08104229 204.98993492 C321.36396218 201.57781676 327.08201758 197.7029974 332.69066143 193.25726891 C331.34560223 189.2220913 328.72587363 187.87424392 325.31566143 185.63226891 C324.65155254 185.19495445 323.98744366 184.75764 323.30321026 184.30707359 C311.26734701 176.60434325 292.3818748 165.25726891 277.69066143 165.25726891 Z M150.69066143 191.25726891 C152.07010155 194.57401096 153.40538496 196.03808344 156.47191143 197.87836266 C157.22722149 198.33686607 157.98253155 198.79536949 158.76072979 199.26776695 C159.56260723 199.7386776 160.36448467 200.20958824 161.19066143 200.69476891 C162.40991314 201.4233712 162.40991314 201.4233712 163.6537962 202.16669273 C173.09999352 208.48952848 173.09999352 208.48952848 183.69066143 211.25726891 C184.06835674 210.12933922 184.44605206 209.00140953 184.83519268 207.83930016 C190.01090483 192.87170015 196.6087585 178.29522323 205.69066143 165.25726891 C187.30207084 165.25726891 164.71210681 180.65172089 150.69066143 191.25726891 Z M131.69066143 207.94476891 C106.16634069 234.16446377 93.09771891 268.1514067 90.69066143 304.25726891 C116.76066143 304.25726891 142.83066143 304.25726891 169.69066143 304.25726891 C170.35066143 293.69726891 171.01066143 283.13726891 171.69066143 272.25726891 C173.59759664 257.49389953 175.70237738 242.83647292 178.69066143 228.25726891 C177.64909893 227.79578453 176.60753643 227.33430016 175.53441143 226.85883141 C163.20966391 221.29132053 151.58397924 214.85887566 140.81566143 206.63226891 C136.17368976 203.10437043 135.51907559 204.13686411 131.69066143 207.94476891 Z M345.69066143 204.25726891 C343.55476155 205.62093526 341.62019929 207.01750977 339.62816143 208.56976891 C334.09767579 212.70122384 328.4230317 216.29871468 322.37816143 219.63226891 C321.65040508 220.0361483 320.92264874 220.44002769 320.17283916 220.85614586 C315.12759785 223.60223206 309.96976342 225.99623564 304.69066143 228.25726891 C304.82641582 228.95884117 304.96217022 229.66041344 305.10203838 230.38324547 C307.66996953 243.80212563 309.98479053 257.16914049 311.44066143 270.75726891 C311.55579082 271.81462242 311.67092022 272.87197594 311.78953838 273.96137047 C312.80882001 284.06635746 313.18162262 294.0764927 313.69066143 304.25726891 C339.76066143 304.25726891 365.83066143 304.25726891 392.69066143 304.25726891 C391.8759605 291.22150608 391.8759605 291.22150608 389.62816143 278.56976891 C389.41264629 277.644786 389.19713116 276.71980309 388.97508526 275.76679039 C383.00750213 251.5272227 371.0453967 229.34477138 354.25316143 210.94476891 C353.74494854 210.38708824 353.23673565 209.82940758 352.71312237 209.2548275 C350.3993054 206.79436016 348.94506685 205.34207071 345.69066143 204.25726891 Z M194.69066143 234.25726891 C192.33591288 242.884427 190.76960111 251.46358862 189.56566143 260.31976891 C189.39679424 261.50892906 189.22792706 262.69808922 189.05394268 263.92328453 C188.57385354 267.36518342 188.12278559 270.80904189 187.69066143 274.25726891 C187.57883526 275.13238121 187.46700909 276.00749352 187.35179424 276.90912437 C186.34168395 286.0975838 186.69066143 294.86373938 186.69066143 304.25726891 C222.99066143 304.25726891 259.29066143 304.25726891 296.69066143 304.25726891 C296.73121469 287.99252094 296.73121469 287.99252094 295.44066143 271.94476891 C295.30933819 270.81756432 295.17801495 269.69035973 295.04271221 268.52899742 C293.64035374 250.92953577 293.64035374 250.92953577 288.69066143 234.25726891 C288.10542706 234.36683922 287.52019268 234.47640953 286.91722393 234.58930016 C285.01163263 234.94123368 283.10371041 235.28060895 281.19456768 235.61273766 C278.85885485 236.04238383 276.5321746 236.52441154 274.21800518 237.05805016 C252.5424908 241.75819683 227.24847901 241.22841919 205.69066143 236.25726891 C203.48415244 235.85138933 201.27599178 235.45429446 199.06566143 235.06976891 C197.60707689 234.80029171 196.14869283 234.529723 194.69066143 234.25726891 Z M90.69066143 320.25726891 C91.50536236 333.29303173 91.50536236 333.29303173 93.75316143 345.94476891 C93.96867657 346.86975182 94.1841917 347.79473473 94.4062376 348.74774742 C100.38575741 373.03580041 112.40479669 395.07649895 129.06566143 413.63226891 C129.56549541 414.19832848 130.0653294 414.76438805 130.58030987 415.34760094 C132.16387885 417.10529614 132.16387885 417.10529614 134.69066143 419.25726891 C138.7938207 419.25726891 139.35636125 419.13204626 142.45628643 416.91351891 C143.17397198 416.41263756 143.89165752 415.91175621 144.63109112 415.39569664 C145.39324932 414.85501549 146.15540752 414.31433434 146.94066143 413.75726891 C155.19536845 408.06428048 163.63045908 403.51064444 172.69066143 399.25726891 C174.69337265 398.26270983 176.69434912 397.26461054 178.69066143 396.25726891 C178.48702984 395.20491051 178.48702984 395.20491051 178.27928448 394.13129234 C175.71135333 380.71241218 173.39653233 367.34539732 171.94066143 353.75726891 C171.76796734 352.17123863 171.76796734 352.17123863 171.59178448 350.55316734 C170.57250285 340.44818035 170.19970024 330.43804511 169.69066143 320.25726891 C143.62066143 320.25726891 117.55066143 320.25726891 90.69066143 320.25726891 Z M186.69066143 320.25726891 C186.65010817 336.52201687 186.65010817 336.52201687 187.94066143 352.56976891 C188.13764629 354.26057579 188.13764629 354.26057579 188.33861065 355.98554039 C189.74096912 373.58500204 189.74096912 373.58500204 194.69066143 390.25726891 C195.27589581 390.14769859 195.86113018 390.03812828 196.46409893 389.92523766 C198.36969024 389.57330413 200.27761245 389.23392887 202.18675518 388.90180016 C204.52246802 388.47215398 206.84914826 387.99012627 209.16331768 387.45648766 C231.88937051 382.52248462 257.91756758 383.56889117 280.46947002 388.77655602 C283.19576176 389.36658332 285.93712975 389.81395375 288.69066143 390.25726891 C291.04540998 381.63011081 292.61172175 373.05094919 293.81566143 364.19476891 C294.06896221 362.41102867 294.06896221 362.41102867 294.32738018 360.59125328 C294.80746932 357.14935439 295.25853727 353.70549592 295.69066143 350.25726891 C295.8024876 349.3821566 295.91431377 348.5070443 296.02952862 347.60541344 C297.03963891 338.41695401 296.69066143 329.65079843 296.69066143 320.25726891 C260.39066143 320.25726891 224.09066143 320.25726891 186.69066143 320.25726891 Z M313.69066143 320.25726891 C313.03066143 330.81726891 312.37066143 341.37726891 311.69066143 352.25726891 C309.78372622 367.02063828 307.67894548 381.67806489 304.69066143 396.25726891 C305.73222393 396.71875328 306.77378643 397.18023766 307.84691143 397.65570641 C321.38843472 403.7728766 334.01827765 411.01663175 345.69066143 420.25726891 C364.38771171 411.71813988 377.10428895 382.77561299 384.09300518 364.61273766 C386.43861175 357.91813409 388.32487297 351.16014855 389.94066143 344.25726891 C390.10396954 343.58268639 390.26727764 342.90810387 390.43553448 342.21307945 C392.06581088 334.81039124 392.16980394 328.07013126 392.69066143 320.25726891 C366.62066143 320.25726891 340.55066143 320.25726891 313.69066143 320.25726891 Z M199.69066143 407.25726891 C200.86624846 413.59201421 202.69366595 419.22060345 205.37816143 425.06976891 C205.73337872 425.85094078 206.088596 426.63211266 206.45457745 427.43695641 C212.80150634 441.17472627 220.44421488 454.13557882 233.69066143 462.25726891 C239.20269862 464.09461464 245.29580428 464.22260409 250.69066143 461.88226891 C268.02781021 451.85049129 276.35576179 430.38638046 283.15941143 412.52680016 C283.75052533 410.00152682 283.39367725 408.70720177 282.69066143 406.25726891 C280.0040536 405.60752685 277.31647469 404.96238473 274.62816143 404.31976891 C273.87599346 404.13736656 273.12382549 403.95496422 272.34886456 403.76703453 C271.60443096 403.58978844 270.85999737 403.41254234 270.09300518 403.22992516 C269.07968121 402.98641319 269.07968121 402.98641319 268.04588604 402.7379818 C259.58717551 401.0115175 251.1565336 400.97513517 242.56566143 400.94476891 C241.43314953 400.93984428 241.43314953 400.93984428 240.2777586 400.93482018 C219.34279107 400.88046373 219.34279107 400.88046373 199.69066143 407.25726891 Z M171.69066143 417.75726891 C170.4148521 418.43088463 170.4148521 418.43088463 169.11326885 419.11810875 C162.53306002 422.65884309 156.52174806 426.56619247 150.69066143 431.25726891 C152.03572063 435.29244651 154.65544924 436.64029389 158.06566143 438.88226891 C158.72977032 439.31958336 159.3938792 439.75689781 160.0781126 440.20746422 C173.40865058 448.73876249 188.36353655 455.28292987 203.69066143 459.25726891 C204.35066143 458.92726891 205.01066143 458.59726891 205.69066143 458.25726891 C205.25133282 457.66736168 204.8120042 457.07745445 204.3593626 456.46967125 C199.82865109 450.21927807 196.26584969 443.86770794 193.00316143 436.88226891 C192.54361065 435.93094078 192.08405987 434.97961266 191.61058331 433.99945641 C188.41066554 427.24356726 185.90672108 420.39362559 183.69066143 413.25726891 C179.07919319 413.25726891 175.70441853 415.62231639 171.69066143 417.75726891 Z M299.69066143 413.25726891 C299.31296612 414.38519859 298.93527081 415.51312828 298.54613018 416.67523766 C293.37041803 431.64283766 286.77256436 446.21931458 277.69066143 459.25726891 C297.28455486 455.5027504 317.22563035 445.82260666 332.69066143 433.25726891 C331.31122131 429.94052685 329.9759379 428.47645437 326.90941143 426.63617516 C326.15410137 426.17767174 325.39879131 425.71916832 324.62059307 425.24677086 C323.81871563 424.77586021 323.01683819 424.30494957 322.19066143 423.81976891 C320.97140972 423.09116661 320.97140972 423.09116661 319.72752666 422.34784508 C310.28132934 416.02500934 310.28132934 416.02500934 299.69066143 413.25726891 Z " fill="#2424C2" transform="translate(86.30933856964111,15.742731094360352)"/>
<path d="M0 0 C5.28 0 10.56 0 16 0 C16 5.28 16 10.56 16 16 C10.72 16 5.44 16 0 16 C0 10.72 0 5.44 0 0 Z " fill="#2424C2" transform="translate(304,112)"/>
<path d="M0 0 C5.28 0 10.56 0 16 0 C16 5.28 16 10.56 16 16 C10.72 16 5.44 16 0 16 C0 10.72 0 5.44 0 0 Z " fill="#2424C2" transform="translate(112,112)"/>
<path d="M0 0 C5.28 0 10.56 0 16 0 C16 5.28 16 10.56 16 16 C10.72 16 5.44 16 0 16 C0 10.72 0 5.44 0 0 Z " fill="#2424C2" transform="translate(80,112)"/>
<path d="M0 0 C5.28 0 10.56 0 16 0 C16 5.28 16 10.56 16 16 C10.72 16 5.44 16 0 16 C0 10.72 0 5.44 0 0 Z " fill="#2424C2" transform="translate(48,112)"/>
<path d="M0 0 C5.28 0 10.56 0 16 0 C16 5.28 16 10.56 16 16 C10.72 16 5.44 16 0 16 C0 10.72 0 5.44 0 0 Z " fill="#2424C2" transform="translate(352,48)"/>
<path d="M0 0 C5.28 0 10.56 0 16 0 C16 5.28 16 10.56 16 16 C10.72 16 5.44 16 0 16 C0 10.72 0 5.44 0 0 Z " fill="#2424C2" transform="translate(160,48)"/>
<path d="M0 0 C5.28 0 10.56 0 16 0 C16 5.28 16 10.56 16 16 C10.72 16 5.44 16 0 16 C0 10.72 0 5.44 0 0 Z " fill="#2424C2" transform="translate(128,48)"/>
<path d="M0 0 C5.28 0 10.56 0 16 0 C16 5.28 16 10.56 16 16 C10.72 16 5.44 16 0 16 C0 10.72 0 5.44 0 0 Z " fill="#2424C2" transform="translate(96,48)"/>
</svg>
